  0
SECTION
  2
HEADER
  9
$ACADVER
  1
AC1015
  9
$ACADMAINTVER
 70
     6
  9
$DWGCODEPAGE
  3
ANSI_1252
  9
$INSBASE
 10
0.0
 20
0.0
 30
0.0
  9
$EXTMIN
 10
-1.2829871848
 20
2.5876742955
 30
0.0
  9
$EXTMAX
 10
6.7070128152
 20
3.2836742955
 30
0.0
  9
$LIMMIN
 10
0.0
 20
0.0
  9
$LIMMAX
 10
12.0
 20
9.0
  9
$ORTHOMODE
 70
     0
  9
$REGENMODE
 70
     1
  9
$FILLMODE
 70
     1
  9
$QTEXTMODE
 70
     0
  9
$MIRRTEXT
 70
     1
  9
$LTSCALE
 40
1.0
  9
$ATTMODE
 70
     1
  9
$TEXTSIZE
 40
0.125
  9
$TRACEWID
 40
0.05
  9
$TEXTSTYLE
  7
Standard
  9
$CLAYER
  8
0
  9
$CELTYPE
  6
ByLayer
  9
$CECOLOR
 62
   256
  9
$CELTSCALE
 40
1.0
  9
$DISPSILH
 70
     0
  9
$DIMSCALE
 40
1.0
  9
$DIMASZ
 40
0.13
  9
$DIMEXO
 40
0.05
  9
$DIMDLI
 40
0.38
  9
$DIMRND
 40
0.0
  9
$DIMDLE
 40
0.0
  9
$DIMEXE
 40
0.125
  9
$DIMTP
 40
0.0
  9
$DIMTM
 40
0.0
  9
$DIMTXT
 40
0.125
  9
$DIMCEN
 40
0.09
  9
$DIMTSZ
 40
0.0
  9
$DIMTOL
 70
     0
  9
$DIMLIM
 70
     0
  9
$DIMTIH
 70
     1
  9
$DIMTOH
 70
     1
  9
$DIMSE1
 70
     0
  9
$DIMSE2
 70
     0
  9
$DIMTAD
 70
     0
  9
$DIMZIN
 70
     0
  9
$DIMBLK
  1

  9
$DIMASO
 70
     1
  9
$DIMSHO
 70
     1
  9
$DIMPOST
  1

  9
$DIMAPOST
  1

  9
$DIMALT
 70
     0
  9
$DIMALTD
 70
     2
  9
$DIMALTF
 40
25.4
  9
$DIMLFAC
 40
1.0
  9
$DIMTOFL
 70
     0
  9
$DIMTVP
 40
0.0
  9
$DIMTIX
 70
     0
  9
$DIMSOXD
 70
     0
  9
$DIMSAH
 70
     0
  9
$DIMBLK1
  1

  9
$DIMBLK2
  1

  9
$DIMSTYLE
  2
Standard
  9
$DIMCLRD
 70
     0
  9
$DIMCLRE
 70
     0
  9
$DIMCLRT
 70
     0
  9
$DIMTFAC
 40
1.0
  9
$DIMGAP
 40
0.06
  9
$DIMJUST
 70
     0
  9
$DIMSD1
 70
     0
  9
$DIMSD2
 70
     0
  9
$DIMTOLJ
 70
     1
  9
$DIMTZIN
 70
     0
  9
$DIMALTZ
 70
     0
  9
$DIMALTTZ
 70
     0
  9
$DIMUPT
 70
     0
  9
$DIMDEC
 70
     2
  9
$DIMTDEC
 70
     2
  9
$DIMALTU
 70
     2
  9
$DIMALTTD
 70
     2
  9
$DIMTXSTY
  7
Standard
  9
$DIMAUNIT
 70
     0
  9
$DIMADEC
 70
     2
  9
$DIMALTRND
 40
0.0
  9
$DIMAZIN
 70
     0
  9
$DIMDSEP
 70
    46
  9
$DIMATFIT
 70
     3
  9
$DIMFRAC
 70
     0
  9
$DIMLDRBLK
  1

  9
$DIMLUNIT
 70
     2
  9
$DIMLWD
 70
    -2
  9
$DIMLWE
 70
    -2
  9
$DIMTMOVE
 70
     0
  9
$LUNITS
 70
     2
  9
$LUPREC
 70
     2
  9
$SKETCHINC
 40
0.1
  9
$FILLETRAD
 40
0.5
  9
$AUNITS
 70
     0
  9
$AUPREC
 70
     2
  9
$MENU
  1
.
  9
$ELEVATION
 40
0.0
  9
$PELEVATION
 40
0.0
  9
$THICKNESS
 40
0.0
  9
$LIMCHECK
 70
     0
  9
$CHAMFERA
 40
0.0
  9
$CHAMFERB
 40
0.0
  9
$CHAMFERC
 40
0.0
  9
$CHAMFERD
 40
0.0
  9
$SKPOLY
 70
     0
  9
$TDCREATE
 40
2458509.457674908
  9
$TDUCREATE
 40
2458509.707674908
  9
$TDUPDATE
 40
2458509.457818854
  9
$TDUUPDATE
 40
2458509.707818854
  9
$TDINDWG
 40
0.0000000116
  9
$TDUSRTIMER
 40
0.0000000116
  9
$USRTIMER
 70
     1
  9
$ANGBASE
 50
0.0
  9
$ANGDIR
 70
     0
  9
$PDMODE
 70
     0
  9
$PDSIZE
 40
-1.0
  9
$PLINEWID
 40
0.0
  9
$SPLFRAME
 70
     0
  9
$SPLINETYPE
 70
     6
  9
$SPLINESEGS
 70
     8
  9
$HANDSEED
  5
4A4
  9
$SURFTAB1
 70
     6
  9
$SURFTAB2
 70
     6
  9
$SURFTYPE
 70
     6
  9
$SURFU
 70
     6
  9
$SURFV
 70
     6
  9
$UCSBASE
  2

  9
$UCSNAME
  2

  9
$UCSORG
 10
0.0
 20
0.0
 30
0.0
  9
$UCSXDIR
 10
1.0
 20
0.0
 30
0.0
  9
$UCSYDIR
 10
0.0
 20
1.0
 30
0.0
  9
$UCSORTHOREF
  2

  9
$UCSORTHOVIEW
 70
     0
  9
$UCSORGTOP
 10
0.0
 20
0.0
 30
0.0
  9
$UCSORGBOTTOM
 10
0.0
 20
0.0
 30
0.0
  9
$UCSORGLEFT
 10
0.0
 20
0.0
 30
0.0
  9
$UCSORGRIGHT
 10
0.0
 20
0.0
 30
0.0
  9
$UCSORGFRONT
 10
0.0
 20
0.0
 30
0.0
  9
$UCSORGBACK
 10
0.0
 20
0.0
 30
0.0
  9
$PUCSBASE
  2

  9
$PUCSNAME
  2

  9
$PUCSORG
 10
0.0
 20
0.0
 30
0.0
  9
$PUCSXDIR
 10
1.0
 20
0.0
 30
0.0
  9
$PUCSYDIR
 10
0.0
 20
1.0
 30
0.0
  9
$PUCSORTHOREF
  2

  9
$PUCSORTHOVIEW
 70
     0
  9
$PUCSORGTOP
 10
0.0
 20
0.0
 30
0.0
  9
$PUCSORGBOTTOM
 10
0.0
 20
0.0
 30
0.0
  9
$PUCSORGLEFT
 10
0.0
 20
0.0
 30
0.0
  9
$PUCSORGRIGHT
 10
0.0
 20
0.0
 30
0.0
  9
$PUCSORGFRONT
 10
0.0
 20
0.0
 30
0.0
  9
$PUCSORGBACK
 10
0.0
 20
0.0
 30
0.0
  9
$USERI1
 70
     0
  9
$USERI2
 70
     0
  9
$USERI3
 70
     0
  9
$USERI4
 70
     0
  9
$USERI5
 70
     0
  9
$USERR1
 40
0.0
  9
$USERR2
 40
0.0
  9
$USERR3
 40
0.0
  9
$USERR4
 40
0.0
  9
$USERR5
 40
0.0
  9
$WORLDVIEW
 70
     1
  9
$SHADEDGE
 70
     3
  9
$SHADEDIF
 70
    70
  9
$TILEMODE
 70
     1
  9
$MAXACTVP
 70
    64
  9
$PINSBASE
 10
0.0
 20
0.0
 30
0.0
  9
$PLIMCHECK
 70
     0
  9
$PEXTMIN
 10
1.0000000000E+20
 20
1.0000000000E+20
 30
1.0000000000E+20
  9
$PEXTMAX
 10
-1.0000000000E+20
 20
-1.0000000000E+20
 30
-1.0000000000E+20
  9
$PLIMMIN
 10
0.0
 20
0.0
  9
$PLIMMAX
 10
12.0
 20
9.0
  9
$UNITMODE
 70
     0
  9
$VISRETAIN
 70
     1
  9
$PLINEGEN
 70
     0
  9
$PSLTSCALE
 70
     1
  9
$TREEDEPTH
 70
  3020
  9
$CMLSTYLE
  2
Standard
  9
$CMLJUST
 70
     0
  9
$CMLSCALE
 40
1.0
  9
$PROXYGRAPHICS
 70
     1
  9
$MEASUREMENT
 70
     0
  9
$CELWEIGHT
370
    -1
  9
$ENDCAPS
280
     0
  9
$JOINSTYLE
280
     0
  9
$LWDISPLAY
290
     1
  9
$INSUNITS
 70
     1
  9
$HYPERLINKBASE
  1

  9
$STYLESHEET
  1

  9
$XEDIT
290
     1
  9
$CEPSNTYPE
380
     0
  9
$PSTYLEMODE
290
     1
  9
$FINGERPRINTGUID
  2
{720E122D-0784-49EE-9088-2E4072939304}
  9
$VERSIONGUID
  2
{FAEB1C32-E019-11D5-929B-00C0DF256EC4}
  9
$EXTNAMES
290
     1
  9
$PSVPSCALE
 40
0.0
  9
$OLESTARTUP
290
     0
  0
ENDSEC
  0
SECTION
  2
CLASSES
  0
CLASS
  1
ACDBDICTIONARYWDFLT
  2
AcDbDictionaryWithDefault
  3
ObjectDBX Classes
 90
        0
280
     0
281
     0
  0
CLASS
  1
VISUALSTYLE
  2
AcDbVisualStyle
  3
ObjectDBX Classes
 90
     4095
280
     0
281
     0
  0
CLASS
  1
MATERIAL
  2
AcDbMaterial
  3
ObjectDBX Classes
 90
     1153
280
     0
281
     0
  0
CLASS
  1
SCALE
  2
AcDbScale
  3
ObjectDBX Classes
 90
     1153
280
     0
281
     0
  0
CLASS
  1
TABLESTYLE
  2
AcDbTableStyle
  3
ObjectDBX Classes
 90
     4095
280
     0
281
     0
  0
CLASS
  1
MLEADERSTYLE
  2
AcDbMLeaderStyle
  3
ACDB_MLEADERSTYLE_CLASS
 90
     4095
280
     0
281
     0
  0
CLASS
  1
SUN
  2
AcDbSun
  3
SCENEOE
 90
     1153
280
     0
281
     0
  0
CLASS
  1
ACDBPLACEHOLDER
  2
AcDbPlaceHolder
  3
ObjectDBX Classes
 90
        0
280
     0
281
     0
  0
CLASS
  1
LAYOUT
  2
AcDbLayout
  3
ObjectDBX Classes
 90
        0
280
     0
281
     0
  0
ENDSEC
  0
SECTION
  2
TABLES
  0
TABLE
  2
VPORT
  5
8
330
0
100
AcDbSymbolTable
 70
     1
  0
VPORT
  5
29
330
8
100
AcDbSymbolTableRecord
100
AcDbViewportTableRecord
  2
*Active
 70
     0
 10
0.0
 20
0.0
 11
1.0
 21
1.0
 12
2.7120128152
 22
2.9356742955
 13
0.0
 23
0.0
 14
0.5
 24
0.5
 15
0.5
 25
0.5
 16
0.0
 26
0.0
 36
1.0
 17
0.0
 27
0.0
 37
0.0
 40
0.70992
 41
11.4798850575
 42
50.0
 43
0.0
 44
0.0
 50
0.0
 51
0.0
 71
     0
 72
   100
 73
     1
 74
     3
 75
     0
 76
     0
 77
     0
 78
     0
281
     0
 65
     1
110
0.0
120
0.0
130
0.0
111
1.0
121
0.0
131
0.0
112
0.0
122
1.0
132
0.0
 79
     0
146
0.0
  0
ENDTAB
  0
TABLE
  2
LTYPE
  5
5
330
0
100
AcDbSymbolTable
 70
     6
  0
LTYPE
  5
14
330
5
100
AcDbSymbolTableRecord
100
AcDbLinetypeTableRecord
  2
ByBlock
 70
     0
  3

 72
    65
 73
     0
 40
0.0
  0
LTYPE
  5
15
330
5
100
AcDbSymbolTableRecord
100
AcDbLinetypeTableRecord
  2
ByLayer
 70
     0
  3

 72
    65
 73
     0
 40
0.0
  0
LTYPE
  5
16
330
5
100
AcDbSymbolTableRecord
100
AcDbLinetypeTableRecord
  2
Continuous
 70
     0
  3
Solid line
 72
    65
 73
     0
 40
0.0
  0
LTYPE
  5
6E
330
5
100
AcDbSymbolTableRecord
100
AcDbLinetypeTableRecord
  2
HIDDEN
 70
     0
  3
Hidden __ __ __ __ __ __ __ __ __ __ __ __ __ __
 72
    65
 73
     2
 40
0.075
 49
0.05
 74
     0
 49
-0.025
 74
     0
  0
LTYPE
  5
6F
330
5
100
AcDbSymbolTableRecord
100
AcDbLinetypeTableRecord
  2
PHANTOM
 70
     0
  3
Phantom ______  __  __  ______  __  __  ______
 72
    65
 73
     6
 40
0.5
 49
0.25
 74
     0
 49
-0.05
 74
     0
 49
0.05
 74
     0
 49
-0.05
 74
     0
 49
0.05
 74
     0
 49
-0.05
 74
     0
  0
LTYPE
  5
70
330
5
100
AcDbSymbolTableRecord
100
AcDbLinetypeTableRecord
  2
CENTER
 70
     0
  3
Center ____ _ ____ _ ____ _ ____ _ ____ _ ____
 72
    65
 73
     4
 40
0.4
 49
0.25
 74
     0
 49
-0.05
 74
     0
 49
0.05
 74
     0
 49
-0.05
 74
     0
  0
LTYPE
  5
71
330
5
100
AcDbSymbolTableRecord
100
AcDbLinetypeTableRecord
  2
CENTERX2
 70
     0
  3
Center (2x) ________  __  ________  __  _____
 72
    65
 73
     4
 40
0.8
 49
0.5
 74
     0
 49
-0.1
 74
     0
 49
0.1
 74
     0
 49
-0.1
 74
     0
  0
LTYPE
  5
72
330
5
100
AcDbSymbolTableRecord
100
AcDbLinetypeTableRecord
  2
DOT2
 70
     0
  3
Dot (.5x) ........................................
 72
    65
 73
     2
 40
0.025
 49
0.0
 74
     0
 49
-0.025
 74
     0
  0
ENDTAB
  0
TABLE
  2
LAYER
  5
2
330
0
100
AcDbSymbolTable
 70
     1
  0
LAYER
  5
10
330
2
100
AcDbSymbolTableRecord
100
AcDbLayerTableRecord
  2
0
 70
     0
 62
     7
  6
Continuous
370
    -3
390
F
  0
ENDTAB
  0
TABLE
  2
STYLE
  5
3
330
0
100
AcDbSymbolTable
 70
     2
  0
STYLE
  5
11
330
3
100
AcDbSymbolTableRecord
100
AcDbTextStyleTableRecord
  2
Standard
 70
     0
 40
0.0
 41
1.0
 50
0.0
 71
     0
 42
0.125
  3
txt
  4

  0
STYLE
  5
4A1
330
3
100
AcDbSymbolTableRecord
100
AcDbTextStyleTableRecord
  2
SLDTEXTSTYLE0
 70
     0
 40
0.0
 41
0.7
 50
0.0
 71
     0
 42
0.125
  3
TXT
  4

  0
ENDTAB
  0
TABLE
  2
VIEW
  5
6
330
0
100
AcDbSymbolTable
 70
     0
  0
ENDTAB
  0
TABLE
  2
UCS
  5
7
330
0
100
AcDbSymbolTable
 70
     0
  0
ENDTAB
  0
TABLE
  2
APPID
  5
9
330
0
100
AcDbSymbolTable
 70
     1
  0
APPID
  5
12
330
9
100
AcDbSymbolTableRecord
100
AcDbRegAppTableRecord
  2
ACAD
 70
     0
  0
ENDTAB
  0
TABLE
  2
DIMSTYLE
  5
A
330
0
100
AcDbSymbolTable
 70
     1
100
AcDbDimStyleTable
  0
DIMSTYLE
105
27
330
A
100
AcDbSymbolTableRecord
100
AcDbDimStyleTableRecord
  2
Standard
 70
     0
178
     0
340
11
  0
ENDTAB
  0
TABLE
  2
BLOCK_RECORD
  5
1
330
0
100
AcDbSymbolTable
 70
     1
  0
BLOCK_RECORD
  5
1F
330
1
100
AcDbSymbolTableRecord
100
AcDbBlockTableRecord
  2
*Model_Space
340
22
  0
BLOCK_RECORD
  5
1B
330
1
100
AcDbSymbolTableRecord
100
AcDbBlockTableRecord
  2
*Paper_Space
340
1E
  0
BLOCK_RECORD
  5
23
330
1
100
AcDbSymbolTableRecord
100
AcDbBlockTableRecord
  2
*Paper_Space0
340
26
  0
ENDTAB
  0
ENDSEC
  0
SECTION
  2
BLOCKS
  0
BLOCK
  5
20
330
1F
100
AcDbEntity
  8
0
100
AcDbBlockBegin
  2
*Model_Space
 70
     0
 10
0.0
 20
0.0
 30
0.0
  3
*Model_Space
  1

  0
ENDBLK
  5
21
330
1F
100
AcDbEntity
  8
0
100
AcDbBlockEnd
  0
BLOCK
  5
1C
330
1B
100
AcDbEntity
 67
     1
  8
0
100
AcDbBlockBegin
  2
*Paper_Space
 70
     0
 10
0.0
 20
0.0
 30
0.0
  3
*Paper_Space
  1

  0
ENDBLK
  5
1D
330
1B
100
AcDbEntity
 67
     1
  8
0
100
AcDbBlockEnd
  0
BLOCK
  5
24
330
23
100
AcDbEntity
  8
0
100
AcDbBlockBegin
  2
*Paper_Space0
 70
     0
 10
0.0
 20
0.0
 30
0.0
  3
*Paper_Space0
  1

  0
ENDBLK
  5
25
330
23
100
AcDbEntity
  8
0
100
AcDbBlockEnd
  0
ENDSEC
  0
SECTION
  2
ENTITIES
  0
CIRCLE
  5
7C
330
1F
100
AcDbEntity
  8
0
  6
Continuous
 62
     7
370
    25
100
AcDbCircle
 10
6.3617128152
 20
3.2250742955
 30
0.0
 40
0.0199999999999996
  0
CIRCLE
  5
1F7
330
1F
100
AcDbEntity
  8
0
  6
Continuous
 62
     7
370
    25
100
AcDbCircle
 10
6.5417128152
 20
3.2250742955
 30
0.0
 40
0.0199999999999996
  0
CIRCLE
  5
204
330
1F
100
AcDbEntity
  8
0
  6
Continuous
 62
     7
370
    25
100
AcDbCircle
 10
6.4517128152
 20
3.1250742955
 30
0.0
 40
0.0200000000000005
  0
CIRCLE
  5
26E
330
1F
100
AcDbEntity
  8
0
  6
Continuous
 62
     7
370
    25
100
AcDbCircle
 10
-0.9376871848
 20
3.2250742955
 30
0.0
 40
0.0199999999999999
  0
CIRCLE
  5
275
330
1F
100
AcDbEntity
  8
0
  6
Continuous
 62
     7
370
    25
100
AcDbCircle
 10
-1.1176871848
 20
3.2250742955
 30
0.0
 40
0.0200000000000005
  0
CIRCLE
  5
285
330
1F
100
AcDbEntity
  8
0
  6
Continuous
 62
     7
370
    25
100
AcDbCircle
 10
-1.0276871848
 20
3.1250742955
 30
0.0
 40
0.0200000000000002
  0
LINE
  5
28D
330
1F
100
AcDbEntity
  8
0
  6
Continuous
 62
     7
370
    25
100
AcDbLine
 10
6.3223128152
 20
3.2644742955
 30
0.0
 11
6.4011128152
 21
3.2644742955
 31
0.0
  0
LINE
  5
28E
330
1F
100
AcDbEntity
  8
0
  6
Continuous
 62
     7
370
    25
100
AcDbLine
 10
6.4011128152
 20
3.2644742955
 30
0.0
 11
6.4011128152
 21
3.1856742955
 31
0.0
  0
LINE
  5
28F
330
1F
100
AcDbEntity
  8
0
  6
Continuous
 62
     7
370
    25
100
AcDbLine
 10
6.4011128152
 20
3.1856742955
 30
0.0
 11
6.3814128152
 21
3.1856742955
 31
0.0
  0
LINE
  5
290
330
1F
100
AcDbEntity
  8
0
  6
Continuous
 62
     7
370
    25
100
AcDbLine
 10
6.3814128152
 20
3.1856742955
 30
0.0
 11
6.3814128152
 21
2.7356742955
 31
0.0
  0
LINE
  5
291
330
1F
100
AcDbEntity
  8
0
  6
Continuous
 62
     7
370
    25
100
AcDbLine
 10
6.4114128152
 20
2.7056742955
 30
0.0
 11
6.6970128152
 21
2.7056742955
 31
0.0
  0
LINE
  5
292
330
1F
100
AcDbEntity
  8
0
  6
Continuous
 62
     7
370
    25
100
AcDbLine
 10
6.6970128152
 20
2.7056742955
 30
0.0
 11
6.6970128152
 21
2.6356742955
 31
0.0
  0
LINE
  5
293
330
1F
100
AcDbEntity
  8
0
  6
Continuous
 62
     7
370
    25
100
AcDbLine
 10
6.6970128152
 20
2.6356742955
 30
0.0
 11
6.3720128152
 21
2.6356742955
 31
0.0
  0
LINE
  5
294
330
1F
100
AcDbEntity
  8
0
  6
Continuous
 62
     7
370
    25
100
AcDbLine
 10
6.3420128152
 20
2.6656742955
 30
0.0
 11
6.3420128152
 21
3.1856742955
 31
0.0
  0
LINE
  5
295
330
1F
100
AcDbEntity
  8
0
  6
Continuous
 62
     7
370
    25
100
AcDbLine
 10
6.3420128152
 20
3.1856742955
 30
0.0
 11
6.3223128152
 21
3.1856742955
 31
0.0
  0
LINE
  5
296
330
1F
100
AcDbEntity
  8
0
  6
Continuous
 62
     7
370
    25
100
AcDbLine
 10
6.3223128152
 20
3.1856742955
 30
0.0
 11
6.3223128152
 21
3.2644742955
 31
0.0
  0
LINE
  5
297
330
1F
100
AcDbEntity
  8
0
  6
Continuous
 62
     7
370
    25
100
AcDbLine
 10
0.9720128152
 20
3.2356742955
 30
0.0
 11
0.8126128152
 21
3.2356742955
 31
0.0
  0
LINE
  5
298
330
1F
100
AcDbEntity
  8
0
  6
Continuous
 62
     7
370
    25
100
AcDbLine
 10
0.9720128152
 20
3.2356742955
 30
0.0
 11
0.9720128152
 21
3.1656742955
 31
0.0
  0
LINE
  5
299
330
1F
100
AcDbEntity
  8
0
  6
Continuous
 62
     7
370
    25
100
AcDbLine
 10
0.9720128152
 20
3.1656742955
 30
0.0
 11
0.8520128152
 21
3.1656742955
 31
0.0
  0
LINE
  5
29A
330
1F
100
AcDbEntity
  8
0
  6
Continuous
 62
     7
370
    25
100
AcDbLine
 10
0.8220128152
 20
3.1356742955
 30
0.0
 11
0.8220128152
 21
2.9056742955
 31
0.0
  0
LINE
  5
29B
330
1F
100
AcDbEntity
  8
0
  6
Continuous
 62
     7
370
    25
100
AcDbLine
 10
0.7920128152
 20
2.8756742955
 30
0.0
 11
0.7420128152
 21
2.8756742955
 31
0.0
  0
LINE
  5
29C
330
1F
100
AcDbEntity
  8
0
  6
Continuous
 62
     7
370
    25
100
AcDbLine
 10
0.7420128152
 20
2.8756742955
 30
0.0
 11
0.7420128152
 21
2.9456742955
 31
0.0
  0
LINE
  5
29D
330
1F
100
AcDbEntity
  8
0
  6
Continuous
 62
     7
370
    25
100
AcDbLine
 10
0.7526128152
 20
2.9456742955
 30
0.0
 11
0.7420128152
 21
2.9456742955
 31
0.0
  0
LINE
  5
29E
330
1F
100
AcDbEntity
  8
0
  6
Continuous
 62
     7
370
    25
100
AcDbLine
 10
0.7826128152
 20
3.2056742955
 30
0.0
 11
0.7826128152
 21
2.9756742955
 31
0.0
  0
LINE
  5
29F
330
1F
100
AcDbEntity
  8
0
  6
Continuous
 62
     7
370
    25
100
AcDbLine
 10
0.8373128152
 20
3.0856742955
 30
0.0
 11
0.8373128152
 21
2.8556742955
 31
0.0
  0
LINE
  5
2A0
330
1F
100
AcDbEntity
  8
0
  6
Continuous
 62
     7
370
    25
100
AcDbLine
 10
0.8673128152
 20
3.1156742955
 30
0.0
 11
0.9720128152
 21
3.1156742955
 31
0.0
  0
LINE
  5
2A1
330
1F
100
AcDbEntity
  8
0
  6
Continuous
 62
     7
370
    25
100
AcDbLine
 10
0.9720128152
 20
3.1156742955
 30
0.0
 11
0.9720128152
 21
3.0456742955
 31
0.0
  0
LINE
  5
2A2
330
1F
100
AcDbEntity
  8
0
  6
Continuous
 62
     7
370
    25
100
AcDbLine
 10
0.9720128152
 20
3.0456742955
 30
0.0
 11
0.9067128152
 21
3.0456742955
 31
0.0
  0
LINE
  5
2A3
330
1F
100
AcDbEntity
  8
0
  6
Continuous
 62
     7
370
    25
100
AcDbLine
 10
0.8767128152
 20
2.7856742955
 30
0.0
 11
0.8767128152
 21
3.0156742955
 31
0.0
  0
LINE
  5
2A4
330
1F
100
AcDbEntity
  8
0
  6
Continuous
 62
     7
370
    25
100
AcDbLine
 10
0.7420128152
 20
2.7556742955
 30
0.0
 11
0.8467128152
 21
2.7556742955
 31
0.0
  0
LINE
  5
2A5
330
1F
100
AcDbEntity
  8
0
  6
Continuous
 62
     7
370
    25
100
AcDbLine
 10
0.7420128152
 20
2.8256742955
 30
0.0
 11
0.8073128152
 21
2.8256742955
 31
0.0
  0
LINE
  5
2A6
330
1F
100
AcDbEntity
  8
0
  6
Continuous
 62
     7
370
    25
100
AcDbLine
 10
0.7420128152
 20
2.7556742955
 30
0.0
 11
0.7420128152
 21
2.8256742955
 31
0.0
  0
LINE
  5
2A7
330
1F
100
AcDbEntity
  8
0
  6
Continuous
 62
     7
370
    25
100
AcDbLine
 10
0.7420128152
 20
2.6356742955
 30
0.0
 11
0.9014128152
 21
2.6356742955
 31
0.0
  0
LINE
  5
2A8
330
1F
100
AcDbEntity
  8
0
  6
Continuous
 62
     7
370
    25
100
AcDbLine
 10
0.7420128152
 20
2.7056742955
 30
0.0
 11
0.8620128152
 21
2.7056742955
 31
0.0
  0
LINE
  5
2A9
330
1F
100
AcDbEntity
  8
0
  6
Continuous
 62
     7
370
    25
100
AcDbLine
 10
0.8920128152
 20
2.7356742955
 30
0.0
 11
0.8920128152
 21
2.9656742955
 31
0.0
  0
LINE
  5
2AA
330
1F
100
AcDbEntity
  8
0
  6
Continuous
 62
     7
370
    25
100
AcDbLine
 10
0.9220128152
 20
2.9956742955
 30
0.0
 11
0.9720128152
 21
2.9956742955
 31
0.0
  0
LINE
  5
2AB
330
1F
100
AcDbEntity
  8
0
  6
Continuous
 62
     7
370
    25
100
AcDbLine
 10
0.9720128152
 20
2.9956742955
 30
0.0
 11
0.9720128152
 21
2.9256742955
 31
0.0
  0
LINE
  5
2AC
330
1F
100
AcDbEntity
  8
0
  6
Continuous
 62
     7
370
    25
100
AcDbLine
 10
0.9720128152
 20
2.9256742955
 30
0.0
 11
0.9614128152
 21
2.9256742955
 31
0.0
  0
LINE
  5
2AD
330
1F
100
AcDbEntity
  8
0
  6
Continuous
 62
     7
370
    25
100
AcDbLine
 10
0.9314128152
 20
2.8956742955
 30
0.0
 11
0.9314128152
 21
2.6656742955
 31
0.0
  0
LINE
  5
2AE
330
1F
100
AcDbEntity
  8
0
  6
Continuous
 62
     7
370
    25
100
AcDbLine
 10
0.7420128152
 20
2.6356742955
 30
0.0
 11
0.7420128152
 21
2.7056742955
 31
0.0
  0
LINE
  5
2AF
330
1F
100
AcDbEntity
  8
0
  6
Continuous
 62
     7
370
    25
100
AcDbLine
 10
1.3126128152
 20
2.8956742955
 30
0.0
 11
1.3126128152
 21
2.6656742955
 31
0.0
  0
LINE
  5
2B0
330
1F
100
AcDbEntity
  8
0
  6
Continuous
 62
     7
370
    25
100
AcDbLine
 10
1.2720128152
 20
2.9256742955
 30
0.0
 11
1.2826128152
 21
2.9256742955
 31
0.0
  0
LINE
  5
2B1
330
1F
100
AcDbEntity
  8
0
  6
Continuous
 62
     7
370
    25
100
AcDbLine
 10
1.2720128152
 20
2.9956742955
 30
0.0
 11
1.2720128152
 21
2.9256742955
 31
0.0
  0
LINE
  5
2B2
330
1F
100
AcDbEntity
  8
0
  6
Continuous
 62
     7
370
    25
100
AcDbLine
 10
1.3220128152
 20
2.9956742955
 30
0.0
 11
1.2720128152
 21
2.9956742955
 31
0.0
  0
LINE
  5
2B3
330
1F
100
AcDbEntity
  8
0
  6
Continuous
 62
     7
370
    25
100
AcDbLine
 10
1.3520128152
 20
2.7356742955
 30
0.0
 11
1.3520128152
 21
2.9656742955
 31
0.0
  0
LINE
  5
2B4
330
1F
100
AcDbEntity
  8
0
  6
Continuous
 62
     7
370
    25
100
AcDbLine
 10
1.5020128152
 20
2.7056742955
 30
0.0
 11
1.3820128152
 21
2.7056742955
 31
0.0
  0
LINE
  5
2B5
330
1F
100
AcDbEntity
  8
0
  6
Continuous
 62
     7
370
    25
100
AcDbLine
 10
1.5020128152
 20
2.6356742955
 30
0.0
 11
1.5020128152
 21
2.7056742955
 31
0.0
  0
LINE
  5
2B6
330
1F
100
AcDbEntity
  8
0
  6
Continuous
 62
     7
370
    25
100
AcDbLine
 10
1.5020128152
 20
2.6356742955
 30
0.0
 11
1.3426128152
 21
2.6356742955
 31
0.0
  0
LINE
  5
2B7
330
1F
100
AcDbEntity
  8
0
  6
Continuous
 62
     7
370
    25
100
AcDbLine
 10
1.3673128152
 20
2.7856742955
 30
0.0
 11
1.3673128152
 21
3.0156742955
 31
0.0
  0
LINE
  5
2B8
330
1F
100
AcDbEntity
  8
0
  6
Continuous
 62
     7
370
    25
100
AcDbLine
 10
1.2720128152
 20
3.0456742955
 30
0.0
 11
1.3373128152
 21
3.0456742955
 31
0.0
  0
LINE
  5
2B9
330
1F
100
AcDbEntity
  8
0
  6
Continuous
 62
     7
370
    25
100
AcDbLine
 10
1.2720128152
 20
3.1156742955
 30
0.0
 11
1.2720128152
 21
3.0456742955
 31
0.0
  0
LINE
  5
2BA
330
1F
100
AcDbEntity
  8
0
  6
Continuous
 62
     7
370
    25
100
AcDbLine
 10
1.3767128152
 20
3.1156742955
 30
0.0
 11
1.2720128152
 21
3.1156742955
 31
0.0
  0
LINE
  5
2BB
330
1F
100
AcDbEntity
  8
0
  6
Continuous
 62
     7
370
    25
100
AcDbLine
 10
1.4067128152
 20
3.0856742955
 30
0.0
 11
1.4067128152
 21
2.8556742955
 31
0.0
  0
LINE
  5
2BC
330
1F
100
AcDbEntity
  8
0
  6
Continuous
 62
     7
370
    25
100
AcDbLine
 10
1.5020128152
 20
2.8256742955
 30
0.0
 11
1.4367128152
 21
2.8256742955
 31
0.0
  0
LINE
  5
2BD
330
1F
100
AcDbEntity
  8
0
  6
Continuous
 62
     7
370
    25
100
AcDbLine
 10
1.5020128152
 20
2.7556742955
 30
0.0
 11
1.5020128152
 21
2.8256742955
 31
0.0
  0
LINE
  5
2BE
330
1F
100
AcDbEntity
  8
0
  6
Continuous
 62
     7
370
    25
100
AcDbLine
 10
1.5020128152
 20
2.7556742955
 30
0.0
 11
1.3973128152
 21
2.7556742955
 31
0.0
  0
LINE
  5
2BF
330
1F
100
AcDbEntity
  8
0
  6
Continuous
 62
     7
370
    25
100
AcDbLine
 10
1.4220128152
 20
3.1356742955
 30
0.0
 11
1.4220128152
 21
2.9056742955
 31
0.0
  0
LINE
  5
2C0
330
1F
100
AcDbEntity
  8
0
  6
Continuous
 62
     7
370
    25
100
AcDbLine
 10
1.2720128152
 20
3.1656742955
 30
0.0
 11
1.3920128152
 21
3.1656742955
 31
0.0
  0
LINE
  5
2C1
330
1F
100
AcDbEntity
  8
0
  6
Continuous
 62
     7
370
    25
100
AcDbLine
 10
1.2720128152
 20
3.2356742955
 30
0.0
 11
1.2720128152
 21
3.1656742955
 31
0.0
  0
LINE
  5
2C2
330
1F
100
AcDbEntity
  8
0
  6
Continuous
 62
     7
370
    25
100
AcDbLine
 10
1.2720128152
 20
3.2356742955
 30
0.0
 11
1.4314128152
 21
3.2356742955
 31
0.0
  0
LINE
  5
2C3
330
1F
100
AcDbEntity
  8
0
  6
Continuous
 62
     7
370
    25
100
AcDbLine
 10
1.4614128152
 20
3.2056742955
 30
0.0
 11
1.4614128152
 21
2.9756742955
 31
0.0
  0
LINE
  5
2C4
330
1F
100
AcDbEntity
  8
0
  6
Continuous
 62
     7
370
    25
100
AcDbLine
 10
1.4914128152
 20
2.9456742955
 30
0.0
 11
1.5020128152
 21
2.9456742955
 31
0.0
  0
LINE
  5
2C5
330
1F
100
AcDbEntity
  8
0
  6
Continuous
 62
     7
370
    25
100
AcDbLine
 10
1.5020128152
 20
2.8756742955
 30
0.0
 11
1.5020128152
 21
2.9456742955
 31
0.0
  0
LINE
  5
2C6
330
1F
100
AcDbEntity
  8
0
  6
Continuous
 62
     7
370
    25
100
AcDbLine
 10
1.4520128152
 20
2.8756742955
 30
0.0
 11
1.5020128152
 21
2.8756742955
 31
0.0
  0
LINE
  5
2C7
330
1F
100
AcDbEntity
  8
0
  6
Continuous
 62
     7
370
    25
100
AcDbLine
 10
2.0320128152
 20
3.2356742955
 30
0.0
 11
1.8726128152
 21
3.2356742955
 31
0.0
  0
LINE
  5
2C8
330
1F
100
AcDbEntity
  8
0
  6
Continuous
 62
     7
370
    25
100
AcDbLine
 10
2.0320128152
 20
3.2356742955
 30
0.0
 11
2.0320128152
 21
3.1656742955
 31
0.0
  0
LINE
  5
2C9
330
1F
100
AcDbEntity
  8
0
  6
Continuous
 62
     7
370
    25
100
AcDbLine
 10
2.0320128152
 20
3.1656742955
 30
0.0
 11
1.9120128152
 21
3.1656742955
 31
0.0
  0
LINE
  5
2CA
330
1F
100
AcDbEntity
  8
0
  6
Continuous
 62
     7
370
    25
100
AcDbLine
 10
1.8820128152
 20
3.1356742955
 30
0.0
 11
1.8820128152
 21
2.9056742955
 31
0.0
  0
LINE
  5
2CB
330
1F
100
AcDbEntity
  8
0
  6
Continuous
 62
     7
370
    25
100
AcDbLine
 10
1.8520128152
 20
2.8756742955
 30
0.0
 11
1.8020128152
 21
2.8756742955
 31
0.0
  0
LINE
  5
2CC
330
1F
100
AcDbEntity
  8
0
  6
Continuous
 62
     7
370
    25
100
AcDbLine
 10
1.8020128152
 20
2.8756742955
 30
0.0
 11
1.8020128152
 21
2.9456742955
 31
0.0
  0
LINE
  5
2CD
330
1F
100
AcDbEntity
  8
0
  6
Continuous
 62
     7
370
    25
100
AcDbLine
 10
1.8126128152
 20
2.9456742955
 30
0.0
 11
1.8020128152
 21
2.9456742955
 31
0.0
  0
LINE
  5
2CE
330
1F
100
AcDbEntity
  8
0
  6
Continuous
 62
     7
370
    25
100
AcDbLine
 10
1.8426128152
 20
3.2056742955
 30
0.0
 11
1.8426128152
 21
2.9756742955
 31
0.0
  0
LINE
  5
2CF
330
1F
100
AcDbEntity
  8
0
  6
Continuous
 62
     7
370
    25
100
AcDbLine
 10
1.8973128152
 20
3.0856742955
 30
0.0
 11
1.8973128152
 21
2.8556742955
 31
0.0
  0
LINE
  5
2D0
330
1F
100
AcDbEntity
  8
0
  6
Continuous
 62
     7
370
    25
100
AcDbLine
 10
1.9273128152
 20
3.1156742955
 30
0.0
 11
2.0320128152
 21
3.1156742955
 31
0.0
  0
LINE
  5
2D1
330
1F
100
AcDbEntity
  8
0
  6
Continuous
 62
     7
370
    25
100
AcDbLine
 10
2.0320128152
 20
3.1156742955
 30
0.0
 11
2.0320128152
 21
3.0456742955
 31
0.0
  0
LINE
  5
2D2
330
1F
100
AcDbEntity
  8
0
  6
Continuous
 62
     7
370
    25
100
AcDbLine
 10
2.0320128152
 20
3.0456742955
 30
0.0
 11
1.9667128152
 21
3.0456742955
 31
0.0
  0
LINE
  5
2D3
330
1F
100
AcDbEntity
  8
0
  6
Continuous
 62
     7
370
    25
100
AcDbLine
 10
1.9367128152
 20
2.7856742955
 30
0.0
 11
1.9367128152
 21
3.0156742955
 31
0.0
  0
LINE
  5
2D4
330
1F
100
AcDbEntity
  8
0
  6
Continuous
 62
     7
370
    25
100
AcDbLine
 10
1.8020128152
 20
2.7556742955
 30
0.0
 11
1.9067128152
 21
2.7556742955
 31
0.0
  0
LINE
  5
2D5
330
1F
100
AcDbEntity
  8
0
  6
Continuous
 62
     7
370
    25
100
AcDbLine
 10
1.8020128152
 20
2.7556742955
 30
0.0
 11
1.8020128152
 21
2.8256742955
 31
0.0
  0
LINE
  5
2D6
330
1F
100
AcDbEntity
  8
0
  6
Continuous
 62
     7
370
    25
100
AcDbLine
 10
1.8020128152
 20
2.8256742955
 30
0.0
 11
1.8673128152
 21
2.8256742955
 31
0.0
  0
LINE
  5
2D7
330
1F
100
AcDbEntity
  8
0
  6
Continuous
 62
     7
370
    25
100
AcDbLine
 10
1.8020128152
 20
2.6356742955
 30
0.0
 11
1.9614128152
 21
2.6356742955
 31
0.0
  0
LINE
  5
2D8
330
1F
100
AcDbEntity
  8
0
  6
Continuous
 62
     7
370
    25
100
AcDbLine
 10
1.8020128152
 20
2.6356742955
 30
0.0
 11
1.8020128152
 21
2.7056742955
 31
0.0
  0
LINE
  5
2D9
330
1F
100
AcDbEntity
  8
0
  6
Continuous
 62
     7
370
    25
100
AcDbLine
 10
1.8020128152
 20
2.7056742955
 30
0.0
 11
1.9220128152
 21
2.7056742955
 31
0.0
  0
LINE
  5
2DA
330
1F
100
AcDbEntity
  8
0
  6
Continuous
 62
     7
370
    25
100
AcDbLine
 10
1.9520128152
 20
2.7356742955
 30
0.0
 11
1.9520128152
 21
2.9656742955
 31
0.0
  0
LINE
  5
2DB
330
1F
100
AcDbEntity
  8
0
  6
Continuous
 62
     7
370
    25
100
AcDbLine
 10
1.9820128152
 20
2.9956742955
 30
0.0
 11
2.0320128152
 21
2.9956742955
 31
0.0
  0
LINE
  5
2DC
330
1F
100
AcDbEntity
  8
0
  6
Continuous
 62
     7
370
    25
100
AcDbLine
 10
2.0320128152
 20
2.9956742955
 30
0.0
 11
2.0320128152
 21
2.9256742955
 31
0.0
  0
LINE
  5
2DD
330
1F
100
AcDbEntity
  8
0
  6
Continuous
 62
     7
370
    25
100
AcDbLine
 10
2.0320128152
 20
2.9256742955
 30
0.0
 11
2.0214128152
 21
2.9256742955
 31
0.0
  0
LINE
  5
2DE
330
1F
100
AcDbEntity
  8
0
  6
Continuous
 62
     7
370
    25
100
AcDbLine
 10
1.9914128152
 20
2.8956742955
 30
0.0
 11
1.9914128152
 21
2.6656742955
 31
0.0
  0
LINE
  5
2DF
330
1F
100
AcDbEntity
  8
0
  6
Continuous
 62
     7
370
    25
100
AcDbLine
 10
2.3726128152
 20
2.8956742955
 30
0.0
 11
2.3726128152
 21
2.6656742955
 31
0.0
  0
LINE
  5
2E0
330
1F
100
AcDbEntity
  8
0
  6
Continuous
 62
     7
370
    25
100
AcDbLine
 10
2.3320128152
 20
2.9256742955
 30
0.0
 11
2.3426128152
 21
2.9256742955
 31
0.0
  0
LINE
  5
2E1
330
1F
100
AcDbEntity
  8
0
  6
Continuous
 62
     7
370
    25
100
AcDbLine
 10
2.3320128152
 20
2.9956742955
 30
0.0
 11
2.3320128152
 21
2.9256742955
 31
0.0
  0
LINE
  5
2E2
330
1F
100
AcDbEntity
  8
0
  6
Continuous
 62
     7
370
    25
100
AcDbLine
 10
2.3820128152
 20
2.9956742955
 30
0.0
 11
2.3320128152
 21
2.9956742955
 31
0.0
  0
LINE
  5
2E3
330
1F
100
AcDbEntity
  8
0
  6
Continuous
 62
     7
370
    25
100
AcDbLine
 10
2.4120128152
 20
2.7356742955
 30
0.0
 11
2.4120128152
 21
2.9656742955
 31
0.0
  0
LINE
  5
2E4
330
1F
100
AcDbEntity
  8
0
  6
Continuous
 62
     7
370
    25
100
AcDbLine
 10
2.5620128152
 20
2.7056742955
 30
0.0
 11
2.4420128152
 21
2.7056742955
 31
0.0
  0
LINE
  5
2E5
330
1F
100
AcDbEntity
  8
0
  6
Continuous
 62
     7
370
    25
100
AcDbLine
 10
2.5620128152
 20
2.6356742955
 30
0.0
 11
2.5620128152
 21
2.7056742955
 31
0.0
  0
LINE
  5
2E6
330
1F
100
AcDbEntity
  8
0
  6
Continuous
 62
     7
370
    25
100
AcDbLine
 10
2.5620128152
 20
2.6356742955
 30
0.0
 11
2.4026128152
 21
2.6356742955
 31
0.0
  0
LINE
  5
2E7
330
1F
100
AcDbEntity
  8
0
  6
Continuous
 62
     7
370
    25
100
AcDbLine
 10
2.4273128152
 20
2.7856742955
 30
0.0
 11
2.4273128152
 21
3.0156742955
 31
0.0
  0
LINE
  5
2E8
330
1F
100
AcDbEntity
  8
0
  6
Continuous
 62
     7
370
    25
100
AcDbLine
 10
2.3320128152
 20
3.0456742955
 30
0.0
 11
2.3973128152
 21
3.0456742955
 31
0.0
  0
LINE
  5
2E9
330
1F
100
AcDbEntity
  8
0
  6
Continuous
 62
     7
370
    25
100
AcDbLine
 10
2.3320128152
 20
3.1156742955
 30
0.0
 11
2.3320128152
 21
3.0456742955
 31
0.0
  0
LINE
  5
2EA
330
1F
100
AcDbEntity
  8
0
  6
Continuous
 62
     7
370
    25
100
AcDbLine
 10
2.4367128152
 20
3.1156742955
 30
0.0
 11
2.3320128152
 21
3.1156742955
 31
0.0
  0
LINE
  5
2EB
330
1F
100
AcDbEntity
  8
0
  6
Continuous
 62
     7
370
    25
100
AcDbLine
 10
2.4667128152
 20
3.0856742955
 30
0.0
 11
2.4667128152
 21
2.8556742955
 31
0.0
  0
LINE
  5
2EC
330
1F
100
AcDbEntity
  8
0
  6
Continuous
 62
     7
370
    25
100
AcDbLine
 10
2.5620128152
 20
2.8256742955
 30
0.0
 11
2.4967128152
 21
2.8256742955
 31
0.0
  0
LINE
  5
2ED
330
1F
100
AcDbEntity
  8
0
  6
Continuous
 62
     7
370
    25
100
AcDbLine
 10
2.5620128152
 20
2.7556742955
 30
0.0
 11
2.5620128152
 21
2.8256742955
 31
0.0
  0
LINE
  5
2EE
330
1F
100
AcDbEntity
  8
0
  6
Continuous
 62
     7
370
    25
100
AcDbLine
 10
2.5620128152
 20
2.7556742955
 30
0.0
 11
2.4573128152
 21
2.7556742955
 31
0.0
  0
LINE
  5
2EF
330
1F
100
AcDbEntity
  8
0
  6
Continuous
 62
     7
370
    25
100
AcDbLine
 10
2.4820128152
 20
3.1356742955
 30
0.0
 11
2.4820128152
 21
2.9056742955
 31
0.0
  0
LINE
  5
2F0
330
1F
100
AcDbEntity
  8
0
  6
Continuous
 62
     7
370
    25
100
AcDbLine
 10
2.3320128152
 20
3.1656742955
 30
0.0
 11
2.4520128152
 21
3.1656742955
 31
0.0
  0
LINE
  5
2F1
330
1F
100
AcDbEntity
  8
0
  6
Continuous
 62
     7
370
    25
100
AcDbLine
 10
2.3320128152
 20
3.2356742955
 30
0.0
 11
2.3320128152
 21
3.1656742955
 31
0.0
  0
LINE
  5
2F2
330
1F
100
AcDbEntity
  8
0
  6
Continuous
 62
     7
370
    25
100
AcDbLine
 10
2.3320128152
 20
3.2356742955
 30
0.0
 11
2.4914128152
 21
3.2356742955
 31
0.0
  0
LINE
  5
2F3
330
1F
100
AcDbEntity
  8
0
  6
Continuous
 62
     7
370
    25
100
AcDbLine
 10
2.5214128152
 20
3.2056742955
 30
0.0
 11
2.5214128152
 21
2.9756742955
 31
0.0
  0
LINE
  5
2F4
330
1F
100
AcDbEntity
  8
0
  6
Continuous
 62
     7
370
    25
100
AcDbLine
 10
2.5514128152
 20
2.9456742955
 30
0.0
 11
2.5620128152
 21
2.9456742955
 31
0.0
  0
LINE
  5
2F5
330
1F
100
AcDbEntity
  8
0
  6
Continuous
 62
     7
370
    25
100
AcDbLine
 10
2.5620128152
 20
2.8756742955
 30
0.0
 11
2.5620128152
 21
2.9456742955
 31
0.0
  0
LINE
  5
2F6
330
1F
100
AcDbEntity
  8
0
  6
Continuous
 62
     7
370
    25
100
AcDbLine
 10
2.5120128152
 20
2.8756742955
 30
0.0
 11
2.5620128152
 21
2.8756742955
 31
0.0
  0
LINE
  5
2F7
330
1F
100
AcDbEntity
  8
0
  6
Continuous
 62
     7
370
    25
100
AcDbLine
 10
2.8620128152
 20
2.8756742955
 30
0.0
 11
2.8620128152
 21
2.9456742955
 31
0.0
  0
LINE
  5
2F8
330
1F
100
AcDbEntity
  8
0
  6
Continuous
 62
     7
370
    25
100
AcDbLine
 10
2.8620128152
 20
2.9456742955
 30
0.0
 11
3.0920128152
 21
2.9456742955
 31
0.0
  0
LINE
  5
2F9
330
1F
100
AcDbEntity
  8
0
  6
Continuous
 62
     7
370
    25
100
AcDbLine
 10
3.0920128152
 20
2.9456742955
 30
0.0
 11
3.0920128152
 21
2.8756742955
 31
0.0
  0
LINE
  5
2FA
330
1F
100
AcDbEntity
  8
0
  6
Continuous
 62
     7
370
    25
100
AcDbLine
 10
3.0920128152
 20
2.8756742955
 30
0.0
 11
2.8620128152
 21
2.8756742955
 31
0.0
  0
LINE
  5
2FB
330
1F
100
AcDbEntity
  8
0
  6
Continuous
 62
     7
370
    25
100
AcDbLine
 10
3.0920128152
 20
2.7556742955
 30
0.0
 11
3.0920128152
 21
2.8256742955
 31
0.0
  0
LINE
  5
2FC
330
1F
100
AcDbEntity
  8
0
  6
Continuous
 62
     7
370
    25
100
AcDbLine
 10
2.8620128152
 20
2.7556742955
 30
0.0
 11
3.0920128152
 21
2.7556742955
 31
0.0
  0
LINE
  5
2FD
330
1F
100
AcDbEntity
  8
0
  6
Continuous
 62
     7
370
    25
100
AcDbLine
 10
2.8620128152
 20
2.8256742955
 30
0.0
 11
2.8620128152
 21
2.7556742955
 31
0.0
  0
LINE
  5
2FE
330
1F
100
AcDbEntity
  8
0
  6
Continuous
 62
     7
370
    25
100
AcDbLine
 10
3.0920128152
 20
2.8256742955
 30
0.0
 11
2.8620128152
 21
2.8256742955
 31
0.0
  0
LINE
  5
2FF
330
1F
100
AcDbEntity
  8
0
  6
Continuous
 62
     7
370
    25
100
AcDbLine
 10
3.0920128152
 20
2.6356742955
 30
0.0
 11
3.0920128152
 21
2.7056742955
 31
0.0
  0
LINE
  5
300
330
1F
100
AcDbEntity
  8
0
  6
Continuous
 62
     7
370
    25
100
AcDbLine
 10
2.8620128152
 20
2.6356742955
 30
0.0
 11
3.0920128152
 21
2.6356742955
 31
0.0
  0
LINE
  5
301
330
1F
100
AcDbEntity
  8
0
  6
Continuous
 62
     7
370
    25
100
AcDbLine
 10
2.8620128152
 20
2.7056742955
 30
0.0
 11
2.8620128152
 21
2.6356742955
 31
0.0
  0
LINE
  5
302
330
1F
100
AcDbEntity
  8
0
  6
Continuous
 62
     7
370
    25
100
AcDbLine
 10
3.0920128152
 20
2.7056742955
 30
0.0
 11
2.8620128152
 21
2.7056742955
 31
0.0
  0
LINE
  5
303
330
1F
100
AcDbEntity
  8
0
  6
Continuous
 62
     7
370
    25
100
AcDbLine
 10
3.3920128152
 20
2.6356742955
 30
0.0
 11
3.5514128152
 21
2.6356742955
 31
0.0
  0
LINE
  5
304
330
1F
100
AcDbEntity
  8
0
  6
Continuous
 62
     7
370
    25
100
AcDbLine
 10
3.3920128152
 20
2.6356742955
 30
0.0
 11
3.3920128152
 21
2.7056742955
 31
0.0
  0
LINE
  5
305
330
1F
100
AcDbEntity
  8
0
  6
Continuous
 62
     7
370
    25
100
AcDbLine
 10
3.3920128152
 20
2.7056742955
 30
0.0
 11
3.5120128152
 21
2.7056742955
 31
0.0
  0
LINE
  5
306
330
1F
100
AcDbEntity
  8
0
  6
Continuous
 62
     7
370
    25
100
AcDbLine
 10
3.5420128152
 20
2.7356742955
 30
0.0
 11
3.5420128152
 21
2.9656742955
 31
0.0
  0
LINE
  5
307
330
1F
100
AcDbEntity
  8
0
  6
Continuous
 62
     7
370
    25
100
AcDbLine
 10
3.5720128152
 20
2.9956742955
 30
0.0
 11
3.6220128152
 21
2.9956742955
 31
0.0
  0
LINE
  5
308
330
1F
100
AcDbEntity
  8
0
  6
Continuous
 62
     7
370
    25
100
AcDbLine
 10
3.6220128152
 20
2.9956742955
 30
0.0
 11
3.6220128152
 21
2.9256742955
 31
0.0
  0
LINE
  5
309
330
1F
100
AcDbEntity
  8
0
  6
Continuous
 62
     7
370
    25
100
AcDbLine
 10
3.6220128152
 20
2.9256742955
 30
0.0
 11
3.6114128152
 21
2.9256742955
 31
0.0
  0
LINE
  5
30A
330
1F
100
AcDbEntity
  8
0
  6
Continuous
 62
     7
370
    25
100
AcDbLine
 10
3.5814128152
 20
2.8956742955
 30
0.0
 11
3.5814128152
 21
2.6656742955
 31
0.0
  0
LINE
  5
30B
330
1F
100
AcDbEntity
  8
0
  6
Continuous
 62
     7
370
    25
100
AcDbLine
 10
3.4873128152
 20
3.0856742955
 30
0.0
 11
3.4873128152
 21
2.8556742955
 31
0.0
  0
LINE
  5
30C
330
1F
100
AcDbEntity
  8
0
  6
Continuous
 62
     7
370
    25
100
AcDbLine
 10
3.5173128152
 20
3.1156742955
 30
0.0
 11
3.6220128152
 21
3.1156742955
 31
0.0
  0
LINE
  5
30D
330
1F
100
AcDbEntity
  8
0
  6
Continuous
 62
     7
370
    25
100
AcDbLine
 10
3.6220128152
 20
3.1156742955
 30
0.0
 11
3.6220128152
 21
3.0456742955
 31
0.0
  0
LINE
  5
30E
330
1F
100
AcDbEntity
  8
0
  6
Continuous
 62
     7
370
    25
100
AcDbLine
 10
3.6220128152
 20
3.0456742955
 30
0.0
 11
3.5567128152
 21
3.0456742955
 31
0.0
  0
LINE
  5
30F
330
1F
100
AcDbEntity
  8
0
  6
Continuous
 62
     7
370
    25
100
AcDbLine
 10
3.5267128152
 20
2.7856742955
 30
0.0
 11
3.5267128152
 21
3.0156742955
 31
0.0
  0
LINE
  5
310
330
1F
100
AcDbEntity
  8
0
  6
Continuous
 62
     7
370
    25
100
AcDbLine
 10
3.3920128152
 20
2.7556742955
 30
0.0
 11
3.4967128152
 21
2.7556742955
 31
0.0
  0
LINE
  5
311
330
1F
100
AcDbEntity
  8
0
  6
Continuous
 62
     7
370
    25
100
AcDbLine
 10
3.3920128152
 20
2.7556742955
 30
0.0
 11
3.3920128152
 21
2.8256742955
 31
0.0
  0
LINE
  5
312
330
1F
100
AcDbEntity
  8
0
  6
Continuous
 62
     7
370
    25
100
AcDbLine
 10
3.3920128152
 20
2.8256742955
 30
0.0
 11
3.4573128152
 21
2.8256742955
 31
0.0
  0
LINE
  5
313
330
1F
100
AcDbEntity
  8
0
  6
Continuous
 62
     7
370
    25
100
AcDbLine
 10
3.6220128152
 20
3.2356742955
 30
0.0
 11
3.4626128152
 21
3.2356742955
 31
0.0
  0
LINE
  5
314
330
1F
100
AcDbEntity
  8
0
  6
Continuous
 62
     7
370
    25
100
AcDbLine
 10
3.6220128152
 20
3.2356742955
 30
0.0
 11
3.6220128152
 21
3.1656742955
 31
0.0
  0
LINE
  5
315
330
1F
100
AcDbEntity
  8
0
  6
Continuous
 62
     7
370
    25
100
AcDbLine
 10
3.6220128152
 20
3.1656742955
 30
0.0
 11
3.5020128152
 21
3.1656742955
 31
0.0
  0
LINE
  5
316
330
1F
100
AcDbEntity
  8
0
  6
Continuous
 62
     7
370
    25
100
AcDbLine
 10
3.4720128152
 20
3.1356742955
 30
0.0
 11
3.4720128152
 21
2.9056742955
 31
0.0
  0
LINE
  5
317
330
1F
100
AcDbEntity
  8
0
  6
Continuous
 62
     7
370
    25
100
AcDbLine
 10
3.4420128152
 20
2.8756742955
 30
0.0
 11
3.3920128152
 21
2.8756742955
 31
0.0
  0
LINE
  5
318
330
1F
100
AcDbEntity
  8
0
  6
Continuous
 62
     7
370
    25
100
AcDbLine
 10
3.3920128152
 20
2.8756742955
 30
0.0
 11
3.3920128152
 21
2.9456742955
 31
0.0
  0
LINE
  5
319
330
1F
100
AcDbEntity
  8
0
  6
Continuous
 62
     7
370
    25
100
AcDbLine
 10
3.4026128152
 20
2.9456742955
 30
0.0
 11
3.3920128152
 21
2.9456742955
 31
0.0
  0
LINE
  5
31A
330
1F
100
AcDbEntity
  8
0
  6
Continuous
 62
     7
370
    25
100
AcDbLine
 10
3.4326128152
 20
3.2056742955
 30
0.0
 11
3.4326128152
 21
2.9756742955
 31
0.0
  0
LINE
  5
31B
330
1F
100
AcDbEntity
  8
0
  6
Continuous
 62
     7
370
    25
100
AcDbLine
 10
4.0720128152
 20
3.1356742955
 30
0.0
 11
4.0720128152
 21
2.9056742955
 31
0.0
  0
LINE
  5
31C
330
1F
100
AcDbEntity
  8
0
  6
Continuous
 62
     7
370
    25
100
AcDbLine
 10
3.9220128152
 20
3.1656742955
 30
0.0
 11
4.0420128152
 21
3.1656742955
 31
0.0
  0
LINE
  5
31D
330
1F
100
AcDbEntity
  8
0
  6
Continuous
 62
     7
370
    25
100
AcDbLine
 10
3.9220128152
 20
3.2356742955
 30
0.0
 11
3.9220128152
 21
3.1656742955
 31
0.0
  0
LINE
  5
31E
330
1F
100
AcDbEntity
  8
0
  6
Continuous
 62
     7
370
    25
100
AcDbLine
 10
3.9220128152
 20
3.2356742955
 30
0.0
 11
4.0814128152
 21
3.2356742955
 31
0.0
  0
LINE
  5
31F
330
1F
100
AcDbEntity
  8
0
  6
Continuous
 62
     7
370
    25
100
AcDbLine
 10
4.1114128152
 20
3.2056742955
 30
0.0
 11
4.1114128152
 21
2.9756742955
 31
0.0
  0
LINE
  5
320
330
1F
100
AcDbEntity
  8
0
  6
Continuous
 62
     7
370
    25
100
AcDbLine
 10
4.1414128152
 20
2.9456742955
 30
0.0
 11
4.1520128152
 21
2.9456742955
 31
0.0
  0
LINE
  5
321
330
1F
100
AcDbEntity
  8
0
  6
Continuous
 62
     7
370
    25
100
AcDbLine
 10
4.1520128152
 20
2.8756742955
 30
0.0
 11
4.1520128152
 21
2.9456742955
 31
0.0
  0
LINE
  5
322
330
1F
100
AcDbEntity
  8
0
  6
Continuous
 62
     7
370
    25
100
AcDbLine
 10
4.1020128152
 20
2.8756742955
 30
0.0
 11
4.1520128152
 21
2.8756742955
 31
0.0
  0
LINE
  5
323
330
1F
100
AcDbEntity
  8
0
  6
Continuous
 62
     7
370
    25
100
AcDbLine
 10
4.0173128152
 20
2.7856742955
 30
0.0
 11
4.0173128152
 21
3.0156742955
 31
0.0
  0
LINE
  5
324
330
1F
100
AcDbEntity
  8
0
  6
Continuous
 62
     7
370
    25
100
AcDbLine
 10
3.9220128152
 20
3.0456742955
 30
0.0
 11
3.9873128152
 21
3.0456742955
 31
0.0
  0
LINE
  5
325
330
1F
100
AcDbEntity
  8
0
  6
Continuous
 62
     7
370
    25
100
AcDbLine
 10
3.9220128152
 20
3.1156742955
 30
0.0
 11
3.9220128152
 21
3.0456742955
 31
0.0
  0
LINE
  5
326
330
1F
100
AcDbEntity
  8
0
  6
Continuous
 62
     7
370
    25
100
AcDbLine
 10
4.0267128152
 20
3.1156742955
 30
0.0
 11
3.9220128152
 21
3.1156742955
 31
0.0
  0
LINE
  5
327
330
1F
100
AcDbEntity
  8
0
  6
Continuous
 62
     7
370
    25
100
AcDbLine
 10
4.0567128152
 20
3.0856742955
 30
0.0
 11
4.0567128152
 21
2.8556742955
 31
0.0
  0
LINE
  5
328
330
1F
100
AcDbEntity
  8
0
  6
Continuous
 62
     7
370
    25
100
AcDbLine
 10
4.1520128152
 20
2.8256742955
 30
0.0
 11
4.0867128152
 21
2.8256742955
 31
0.0
  0
LINE
  5
329
330
1F
100
AcDbEntity
  8
0
  6
Continuous
 62
     7
370
    25
100
AcDbLine
 10
4.1520128152
 20
2.7556742955
 30
0.0
 11
4.1520128152
 21
2.8256742955
 31
0.0
  0
LINE
  5
32A
330
1F
100
AcDbEntity
  8
0
  6
Continuous
 62
     7
370
    25
100
AcDbLine
 10
4.1520128152
 20
2.7556742955
 30
0.0
 11
4.0473128152
 21
2.7556742955
 31
0.0
  0
LINE
  5
32B
330
1F
100
AcDbEntity
  8
0
  6
Continuous
 62
     7
370
    25
100
AcDbLine
 10
3.9626128152
 20
2.8956742955
 30
0.0
 11
3.9626128152
 21
2.6656742955
 31
0.0
  0
LINE
  5
32C
330
1F
100
AcDbEntity
  8
0
  6
Continuous
 62
     7
370
    25
100
AcDbLine
 10
3.9220128152
 20
2.9256742955
 30
0.0
 11
3.9326128152
 21
2.9256742955
 31
0.0
  0
LINE
  5
32D
330
1F
100
AcDbEntity
  8
0
  6
Continuous
 62
     7
370
    25
100
AcDbLine
 10
3.9220128152
 20
2.9956742955
 30
0.0
 11
3.9220128152
 21
2.9256742955
 31
0.0
  0
LINE
  5
32E
330
1F
100
AcDbEntity
  8
0
  6
Continuous
 62
     7
370
    25
100
AcDbLine
 10
3.9720128152
 20
2.9956742955
 30
0.0
 11
3.9220128152
 21
2.9956742955
 31
0.0
  0
LINE
  5
32F
330
1F
100
AcDbEntity
  8
0
  6
Continuous
 62
     7
370
    25
100
AcDbLine
 10
4.0020128152
 20
2.7356742955
 30
0.0
 11
4.0020128152
 21
2.9656742955
 31
0.0
  0
LINE
  5
330
330
1F
100
AcDbEntity
  8
0
  6
Continuous
 62
     7
370
    25
100
AcDbLine
 10
4.1520128152
 20
2.7056742955
 30
0.0
 11
4.0320128152
 21
2.7056742955
 31
0.0
  0
LINE
  5
331
330
1F
100
AcDbEntity
  8
0
  6
Continuous
 62
     7
370
    25
100
AcDbLine
 10
4.1520128152
 20
2.6356742955
 30
0.0
 11
4.1520128152
 21
2.7056742955
 31
0.0
  0
LINE
  5
332
330
1F
100
AcDbEntity
  8
0
  6
Continuous
 62
     7
370
    25
100
AcDbLine
 10
4.1520128152
 20
2.6356742955
 30
0.0
 11
3.9926128152
 21
2.6356742955
 31
0.0
  0
LINE
  5
333
330
1F
100
AcDbEntity
  8
0
  6
Continuous
 62
     7
370
    25
100
AcDbLine
 10
4.4520128152
 20
2.6356742955
 30
0.0
 11
4.6114128152
 21
2.6356742955
 31
0.0
  0
LINE
  5
334
330
1F
100
AcDbEntity
  8
0
  6
Continuous
 62
     7
370
    25
100
AcDbLine
 10
4.4520128152
 20
2.6356742955
 30
0.0
 11
4.4520128152
 21
2.7056742955
 31
0.0
  0
LINE
  5
335
330
1F
100
AcDbEntity
  8
0
  6
Continuous
 62
     7
370
    25
100
AcDbLine
 10
4.4520128152
 20
2.7056742955
 30
0.0
 11
4.5720128152
 21
2.7056742955
 31
0.0
  0
LINE
  5
336
330
1F
100
AcDbEntity
  8
0
  6
Continuous
 62
     7
370
    25
100
AcDbLine
 10
4.6020128152
 20
2.7356742955
 30
0.0
 11
4.6020128152
 21
2.9656742955
 31
0.0
  0
LINE
  5
337
330
1F
100
AcDbEntity
  8
0
  6
Continuous
 62
     7
370
    25
100
AcDbLine
 10
4.6320128152
 20
2.9956742955
 30
0.0
 11
4.6820128152
 21
2.9956742955
 31
0.0
  0
LINE
  5
338
330
1F
100
AcDbEntity
  8
0
  6
Continuous
 62
     7
370
    25
100
AcDbLine
 10
4.6820128152
 20
2.9956742955
 30
0.0
 11
4.6820128152
 21
2.9256742955
 31
0.0
  0
LINE
  5
339
330
1F
100
AcDbEntity
  8
0
  6
Continuous
 62
     7
370
    25
100
AcDbLine
 10
4.6820128152
 20
2.9256742955
 30
0.0
 11
4.6714128152
 21
2.9256742955
 31
0.0
  0
LINE
  5
33A
330
1F
100
AcDbEntity
  8
0
  6
Continuous
 62
     7
370
    25
100
AcDbLine
 10
4.6414128152
 20
2.8956742955
 30
0.0
 11
4.6414128152
 21
2.6656742955
 31
0.0
  0
LINE
  5
33B
330
1F
100
AcDbEntity
  8
0
  6
Continuous
 62
     7
370
    25
100
AcDbLine
 10
4.5473128152
 20
3.0856742955
 30
0.0
 11
4.5473128152
 21
2.8556742955
 31
0.0
  0
LINE
  5
33C
330
1F
100
AcDbEntity
  8
0
  6
Continuous
 62
     7
370
    25
100
AcDbLine
 10
4.5773128152
 20
3.1156742955
 30
0.0
 11
4.6820128152
 21
3.1156742955
 31
0.0
  0
LINE
  5
33D
330
1F
100
AcDbEntity
  8
0
  6
Continuous
 62
     7
370
    25
100
AcDbLine
 10
4.6820128152
 20
3.1156742955
 30
0.0
 11
4.6820128152
 21
3.0456742955
 31
0.0
  0
LINE
  5
33E
330
1F
100
AcDbEntity
  8
0
  6
Continuous
 62
     7
370
    25
100
AcDbLine
 10
4.6820128152
 20
3.0456742955
 30
0.0
 11
4.6167128152
 21
3.0456742955
 31
0.0
  0
LINE
  5
33F
330
1F
100
AcDbEntity
  8
0
  6
Continuous
 62
     7
370
    25
100
AcDbLine
 10
4.5867128152
 20
2.7856742955
 30
0.0
 11
4.5867128152
 21
3.0156742955
 31
0.0
  0
LINE
  5
340
330
1F
100
AcDbEntity
  8
0
  6
Continuous
 62
     7
370
    25
100
AcDbLine
 10
4.4520128152
 20
2.7556742955
 30
0.0
 11
4.5567128152
 21
2.7556742955
 31
0.0
  0
LINE
  5
341
330
1F
100
AcDbEntity
  8
0
  6
Continuous
 62
     7
370
    25
100
AcDbLine
 10
4.4520128152
 20
2.7556742955
 30
0.0
 11
4.4520128152
 21
2.8256742955
 31
0.0
  0
LINE
  5
342
330
1F
100
AcDbEntity
  8
0
  6
Continuous
 62
     7
370
    25
100
AcDbLine
 10
4.4520128152
 20
2.8256742955
 30
0.0
 11
4.5173128152
 21
2.8256742955
 31
0.0
  0
LINE
  5
343
330
1F
100
AcDbEntity
  8
0
  6
Continuous
 62
     7
370
    25
100
AcDbLine
 10
4.6820128152
 20
3.2356742955
 30
0.0
 11
4.5226128152
 21
3.2356742955
 31
0.0
  0
LINE
  5
344
330
1F
100
AcDbEntity
  8
0
  6
Continuous
 62
     7
370
    25
100
AcDbLine
 10
4.6820128152
 20
3.2356742955
 30
0.0
 11
4.6820128152
 21
3.1656742955
 31
0.0
  0
LINE
  5
345
330
1F
100
AcDbEntity
  8
0
  6
Continuous
 62
     7
370
    25
100
AcDbLine
 10
4.6820128152
 20
3.1656742955
 30
0.0
 11
4.5620128152
 21
3.1656742955
 31
0.0
  0
LINE
  5
346
330
1F
100
AcDbEntity
  8
0
  6
Continuous
 62
     7
370
    25
100
AcDbLine
 10
4.5320128152
 20
3.1356742955
 30
0.0
 11
4.5320128152
 21
2.9056742955
 31
0.0
  0
LINE
  5
347
330
1F
100
AcDbEntity
  8
0
  6
Continuous
 62
     7
370
    25
100
AcDbLine
 10
4.5020128152
 20
2.8756742955
 30
0.0
 11
4.4520128152
 21
2.8756742955
 31
0.0
  0
LINE
  5
348
330
1F
100
AcDbEntity
  8
0
  6
Continuous
 62
     7
370
    25
100
AcDbLine
 10
4.4520128152
 20
2.8756742955
 30
0.0
 11
4.4520128152
 21
2.9456742955
 31
0.0
  0
LINE
  5
349
330
1F
100
AcDbEntity
  8
0
  6
Continuous
 62
     7
370
    25
100
AcDbLine
 10
4.4626128152
 20
2.9456742955
 30
0.0
 11
4.4520128152
 21
2.9456742955
 31
0.0
  0
LINE
  5
34A
330
1F
100
AcDbEntity
  8
0
  6
Continuous
 62
     7
370
    25
100
AcDbLine
 10
4.4926128152
 20
3.2056742955
 30
0.0
 11
4.4926128152
 21
2.9756742955
 31
0.0
  0
LINE
  5
34B
330
1F
100
AcDbEntity
  8
0
  6
Continuous
 62
     7
370
    25
100
AcDbLine
 10
5.1320128152
 20
3.1356742955
 30
0.0
 11
5.1320128152
 21
2.9056742955
 31
0.0
  0
LINE
  5
34C
330
1F
100
AcDbEntity
  8
0
  6
Continuous
 62
     7
370
    25
100
AcDbLine
 10
4.9820128152
 20
3.1656742955
 30
0.0
 11
5.1020128152
 21
3.1656742955
 31
0.0
  0
LINE
  5
34D
330
1F
100
AcDbEntity
  8
0
  6
Continuous
 62
     7
370
    25
100
AcDbLine
 10
4.9820128152
 20
3.2356742955
 30
0.0
 11
4.9820128152
 21
3.1656742955
 31
0.0
  0
LINE
  5
34E
330
1F
100
AcDbEntity
  8
0
  6
Continuous
 62
     7
370
    25
100
AcDbLine
 10
4.9820128152
 20
3.2356742955
 30
0.0
 11
5.1414128152
 21
3.2356742955
 31
0.0
  0
LINE
  5
34F
330
1F
100
AcDbEntity
  8
0
  6
Continuous
 62
     7
370
    25
100
AcDbLine
 10
5.1714128152
 20
3.2056742955
 30
0.0
 11
5.1714128152
 21
2.9756742955
 31
0.0
  0
LINE
  5
350
330
1F
100
AcDbEntity
  8
0
  6
Continuous
 62
     7
370
    25
100
AcDbLine
 10
5.2014128152
 20
2.9456742955
 30
0.0
 11
5.2120128152
 21
2.9456742955
 31
0.0
  0
LINE
  5
351
330
1F
100
AcDbEntity
  8
0
  6
Continuous
 62
     7
370
    25
100
AcDbLine
 10
5.2120128152
 20
2.8756742955
 30
0.0
 11
5.2120128152
 21
2.9456742955
 31
0.0
  0
LINE
  5
352
330
1F
100
AcDbEntity
  8
0
  6
Continuous
 62
     7
370
    25
100
AcDbLine
 10
5.1620128152
 20
2.8756742955
 30
0.0
 11
5.2120128152
 21
2.8756742955
 31
0.0
  0
LINE
  5
353
330
1F
100
AcDbEntity
  8
0
  6
Continuous
 62
     7
370
    25
100
AcDbLine
 10
5.0773128152
 20
2.7856742955
 30
0.0
 11
5.0773128152
 21
3.0156742955
 31
0.0
  0
LINE
  5
354
330
1F
100
AcDbEntity
  8
0
  6
Continuous
 62
     7
370
    25
100
AcDbLine
 10
4.9820128152
 20
3.0456742955
 30
0.0
 11
5.0473128152
 21
3.0456742955
 31
0.0
  0
LINE
  5
355
330
1F
100
AcDbEntity
  8
0
  6
Continuous
 62
     7
370
    25
100
AcDbLine
 10
4.9820128152
 20
3.1156742955
 30
0.0
 11
4.9820128152
 21
3.0456742955
 31
0.0
  0
LINE
  5
356
330
1F
100
AcDbEntity
  8
0
  6
Continuous
 62
     7
370
    25
100
AcDbLine
 10
5.0867128152
 20
3.1156742955
 30
0.0
 11
4.9820128152
 21
3.1156742955
 31
0.0
  0
LINE
  5
357
330
1F
100
AcDbEntity
  8
0
  6
Continuous
 62
     7
370
    25
100
AcDbLine
 10
5.1167128152
 20
3.0856742955
 30
0.0
 11
5.1167128152
 21
2.8556742955
 31
0.0
  0
LINE
  5
358
330
1F
100
AcDbEntity
  8
0
  6
Continuous
 62
     7
370
    25
100
AcDbLine
 10
5.2120128152
 20
2.8256742955
 30
0.0
 11
5.1467128152
 21
2.8256742955
 31
0.0
  0
LINE
  5
359
330
1F
100
AcDbEntity
  8
0
  6
Continuous
 62
     7
370
    25
100
AcDbLine
 10
5.2120128152
 20
2.7556742955
 30
0.0
 11
5.2120128152
 21
2.8256742955
 31
0.0
  0
LINE
  5
35A
330
1F
100
AcDbEntity
  8
0
  6
Continuous
 62
     7
370
    25
100
AcDbLine
 10
5.2120128152
 20
2.7556742955
 30
0.0
 11
5.1073128152
 21
2.7556742955
 31
0.0
  0
LINE
  5
35B
330
1F
100
AcDbEntity
  8
0
  6
Continuous
 62
     7
370
    25
100
AcDbLine
 10
5.0226128152
 20
2.8956742955
 30
0.0
 11
5.0226128152
 21
2.6656742955
 31
0.0
  0
LINE
  5
35C
330
1F
100
AcDbEntity
  8
0
  6
Continuous
 62
     7
370
    25
100
AcDbLine
 10
4.9820128152
 20
2.9256742955
 30
0.0
 11
4.9926128152
 21
2.9256742955
 31
0.0
  0
LINE
  5
35D
330
1F
100
AcDbEntity
  8
0
  6
Continuous
 62
     7
370
    25
100
AcDbLine
 10
4.9820128152
 20
2.9956742955
 30
0.0
 11
4.9820128152
 21
2.9256742955
 31
0.0
  0
LINE
  5
35E
330
1F
100
AcDbEntity
  8
0
  6
Continuous
 62
     7
370
    25
100
AcDbLine
 10
5.0320128152
 20
2.9956742955
 30
0.0
 11
4.9820128152
 21
2.9956742955
 31
0.0
  0
LINE
  5
35F
330
1F
100
AcDbEntity
  8
0
  6
Continuous
 62
     7
370
    25
100
AcDbLine
 10
5.0620128152
 20
2.7356742955
 30
0.0
 11
5.0620128152
 21
2.9656742955
 31
0.0
  0
LINE
  5
360
330
1F
100
AcDbEntity
  8
0
  6
Continuous
 62
     7
370
    25
100
AcDbLine
 10
5.2120128152
 20
2.7056742955
 30
0.0
 11
5.0920128152
 21
2.7056742955
 31
0.0
  0
LINE
  5
361
330
1F
100
AcDbEntity
  8
0
  6
Continuous
 62
     7
370
    25
100
AcDbLine
 10
5.2120128152
 20
2.6356742955
 30
0.0
 11
5.2120128152
 21
2.7056742955
 31
0.0
  0
LINE
  5
362
330
1F
100
AcDbEntity
  8
0
  6
Continuous
 62
     7
370
    25
100
AcDbLine
 10
5.2120128152
 20
2.6356742955
 30
0.0
 11
5.0526128152
 21
2.6356742955
 31
0.0
  0
LINE
  5
363
330
1F
100
AcDbEntity
  8
0
  6
Continuous
 62
     7
370
    25
100
AcDbLine
 10
5.5120128152
 20
2.6356742955
 30
0.0
 11
5.6714128152
 21
2.6356742955
 31
0.0
  0
LINE
  5
364
330
1F
100
AcDbEntity
  8
0
  6
Continuous
 62
     7
370
    25
100
AcDbLine
 10
5.5120128152
 20
2.6356742955
 30
0.0
 11
5.5120128152
 21
2.7056742955
 31
0.0
  0
LINE
  5
365
330
1F
100
AcDbEntity
  8
0
  6
Continuous
 62
     7
370
    25
100
AcDbLine
 10
5.5120128152
 20
2.7056742955
 30
0.0
 11
5.6320128152
 21
2.7056742955
 31
0.0
  0
LINE
  5
366
330
1F
100
AcDbEntity
  8
0
  6
Continuous
 62
     7
370
    25
100
AcDbLine
 10
5.6620128152
 20
2.7356742955
 30
0.0
 11
5.6620128152
 21
2.9656742955
 31
0.0
  0
LINE
  5
367
330
1F
100
AcDbEntity
  8
0
  6
Continuous
 62
     7
370
    25
100
AcDbLine
 10
5.6920128152
 20
2.9956742955
 30
0.0
 11
5.7420128152
 21
2.9956742955
 31
0.0
  0
LINE
  5
368
330
1F
100
AcDbEntity
  8
0
  6
Continuous
 62
     7
370
    25
100
AcDbLine
 10
5.7420128152
 20
2.9956742955
 30
0.0
 11
5.7420128152
 21
2.9256742955
 31
0.0
  0
LINE
  5
369
330
1F
100
AcDbEntity
  8
0
  6
Continuous
 62
     7
370
    25
100
AcDbLine
 10
5.7420128152
 20
2.9256742955
 30
0.0
 11
5.7314128152
 21
2.9256742955
 31
0.0
  0
LINE
  5
36A
330
1F
100
AcDbEntity
  8
0
  6
Continuous
 62
     7
370
    25
100
AcDbLine
 10
5.7014128152
 20
2.8956742955
 30
0.0
 11
5.7014128152
 21
2.6656742955
 31
0.0
  0
LINE
  5
36B
330
1F
100
AcDbEntity
  8
0
  6
Continuous
 62
     7
370
    25
100
AcDbLine
 10
5.6073128152
 20
3.0856742955
 30
0.0
 11
5.6073128152
 21
2.8556742955
 31
0.0
  0
LINE
  5
36C
330
1F
100
AcDbEntity
  8
0
  6
Continuous
 62
     7
370
    25
100
AcDbLine
 10
5.6373128152
 20
3.1156742955
 30
0.0
 11
5.7420128152
 21
3.1156742955
 31
0.0
  0
LINE
  5
36D
330
1F
100
AcDbEntity
  8
0
  6
Continuous
 62
     7
370
    25
100
AcDbLine
 10
5.7420128152
 20
3.1156742955
 30
0.0
 11
5.7420128152
 21
3.0456742955
 31
0.0
  0
LINE
  5
36E
330
1F
100
AcDbEntity
  8
0
  6
Continuous
 62
     7
370
    25
100
AcDbLine
 10
5.7420128152
 20
3.0456742955
 30
0.0
 11
5.6767128152
 21
3.0456742955
 31
0.0
  0
LINE
  5
36F
330
1F
100
AcDbEntity
  8
0
  6
Continuous
 62
     7
370
    25
100
AcDbLine
 10
5.6467128152
 20
2.7856742955
 30
0.0
 11
5.6467128152
 21
3.0156742955
 31
0.0
  0
LINE
  5
370
330
1F
100
AcDbEntity
  8
0
  6
Continuous
 62
     7
370
    25
100
AcDbLine
 10
5.5120128152
 20
2.7556742955
 30
0.0
 11
5.6167128152
 21
2.7556742955
 31
0.0
  0
LINE
  5
371
330
1F
100
AcDbEntity
  8
0
  6
Continuous
 62
     7
370
    25
100
AcDbLine
 10
5.5120128152
 20
2.7556742955
 30
0.0
 11
5.5120128152
 21
2.8256742955
 31
0.0
  0
LINE
  5
372
330
1F
100
AcDbEntity
  8
0
  6
Continuous
 62
     7
370
    25
100
AcDbLine
 10
5.5120128152
 20
2.8256742955
 30
0.0
 11
5.5773128152
 21
2.8256742955
 31
0.0
  0
LINE
  5
373
330
1F
100
AcDbEntity
  8
0
  6
Continuous
 62
     7
370
    25
100
AcDbLine
 10
5.7420128152
 20
3.2356742955
 30
0.0
 11
5.5826128152
 21
3.2356742955
 31
0.0
  0
LINE
  5
374
330
1F
100
AcDbEntity
  8
0
  6
Continuous
 62
     7
370
    25
100
AcDbLine
 10
5.7420128152
 20
3.2356742955
 30
0.0
 11
5.7420128152
 21
3.1656742955
 31
0.0
  0
LINE
  5
375
330
1F
100
AcDbEntity
  8
0
  6
Continuous
 62
     7
370
    25
100
AcDbLine
 10
5.7420128152
 20
3.1656742955
 30
0.0
 11
5.6220128152
 21
3.1656742955
 31
0.0
  0
LINE
  5
376
330
1F
100
AcDbEntity
  8
0
  6
Continuous
 62
     7
370
    25
100
AcDbLine
 10
5.5920128152
 20
3.1356742955
 30
0.0
 11
5.5920128152
 21
2.9056742955
 31
0.0
  0
LINE
  5
377
330
1F
100
AcDbEntity
  8
0
  6
Continuous
 62
     7
370
    25
100
AcDbLine
 10
5.5620128152
 20
2.8756742955
 30
0.0
 11
5.5120128152
 21
2.8756742955
 31
0.0
  0
LINE
  5
378
330
1F
100
AcDbEntity
  8
0
  6
Continuous
 62
     7
370
    25
100
AcDbLine
 10
5.5120128152
 20
2.8756742955
 30
0.0
 11
5.5120128152
 21
2.9456742955
 31
0.0
  0
LINE
  5
379
330
1F
100
AcDbEntity
  8
0
  6
Continuous
 62
     7
370
    25
100
AcDbLine
 10
5.5226128152
 20
2.9456742955
 30
0.0
 11
5.5120128152
 21
2.9456742955
 31
0.0
  0
LINE
  5
37A
330
1F
100
AcDbEntity
  8
0
  6
Continuous
 62
     7
370
    25
100
AcDbLine
 10
5.5526128152
 20
3.2056742955
 30
0.0
 11
5.5526128152
 21
2.9756742955
 31
0.0
  0
LINE
  5
37B
330
1F
100
AcDbEntity
  8
0
  6
Continuous
 62
     7
370
    25
100
AcDbLine
 10
6.1920128152
 20
3.1356742955
 30
0.0
 11
6.1920128152
 21
2.9056742955
 31
0.0
  0
LINE
  5
37C
330
1F
100
AcDbEntity
  8
0
  6
Continuous
 62
     7
370
    25
100
AcDbLine
 10
6.0420128152
 20
3.1656742955
 30
0.0
 11
6.1620128152
 21
3.1656742955
 31
0.0
  0
LINE
  5
37D
330
1F
100
AcDbEntity
  8
0
  6
Continuous
 62
     7
370
    25
100
AcDbLine
 10
6.0420128152
 20
3.2356742955
 30
0.0
 11
6.0420128152
 21
3.1656742955
 31
0.0
  0
LINE
  5
37E
330
1F
100
AcDbEntity
  8
0
  6
Continuous
 62
     7
370
    25
100
AcDbLine
 10
6.0420128152
 20
3.2356742955
 30
0.0
 11
6.2014128152
 21
3.2356742955
 31
0.0
  0
LINE
  5
37F
330
1F
100
AcDbEntity
  8
0
  6
Continuous
 62
     7
370
    25
100
AcDbLine
 10
6.2314128152
 20
3.2056742955
 30
0.0
 11
6.2314128152
 21
2.9756742955
 31
0.0
  0
LINE
  5
380
330
1F
100
AcDbEntity
  8
0
  6
Continuous
 62
     7
370
    25
100
AcDbLine
 10
6.2614128152
 20
2.9456742955
 30
0.0
 11
6.2720128152
 21
2.9456742955
 31
0.0
  0
LINE
  5
381
330
1F
100
AcDbEntity
  8
0
  6
Continuous
 62
     7
370
    25
100
AcDbLine
 10
6.2720128152
 20
2.8756742955
 30
0.0
 11
6.2720128152
 21
2.9456742955
 31
0.0
  0
LINE
  5
382
330
1F
100
AcDbEntity
  8
0
  6
Continuous
 62
     7
370
    25
100
AcDbLine
 10
6.2220128152
 20
2.8756742955
 30
0.0
 11
6.2720128152
 21
2.8756742955
 31
0.0
  0
LINE
  5
383
330
1F
100
AcDbEntity
  8
0
  6
Continuous
 62
     7
370
    25
100
AcDbLine
 10
6.1373128152
 20
2.7856742955
 30
0.0
 11
6.1373128152
 21
3.0156742955
 31
0.0
  0
LINE
  5
384
330
1F
100
AcDbEntity
  8
0
  6
Continuous
 62
     7
370
    25
100
AcDbLine
 10
6.0420128152
 20
3.0456742955
 30
0.0
 11
6.1073128152
 21
3.0456742955
 31
0.0
  0
LINE
  5
385
330
1F
100
AcDbEntity
  8
0
  6
Continuous
 62
     7
370
    25
100
AcDbLine
 10
6.0420128152
 20
3.1156742955
 30
0.0
 11
6.0420128152
 21
3.0456742955
 31
0.0
  0
LINE
  5
386
330
1F
100
AcDbEntity
  8
0
  6
Continuous
 62
     7
370
    25
100
AcDbLine
 10
6.1467128152
 20
3.1156742955
 30
0.0
 11
6.0420128152
 21
3.1156742955
 31
0.0
  0
LINE
  5
387
330
1F
100
AcDbEntity
  8
0
  6
Continuous
 62
     7
370
    25
100
AcDbLine
 10
6.1767128152
 20
3.0856742955
 30
0.0
 11
6.1767128152
 21
2.8556742955
 31
0.0
  0
LINE
  5
388
330
1F
100
AcDbEntity
  8
0
  6
Continuous
 62
     7
370
    25
100
AcDbLine
 10
6.2720128152
 20
2.8256742955
 30
0.0
 11
6.2067128152
 21
2.8256742955
 31
0.0
  0
LINE
  5
389
330
1F
100
AcDbEntity
  8
0
  6
Continuous
 62
     7
370
    25
100
AcDbLine
 10
6.2720128152
 20
2.7556742955
 30
0.0
 11
6.2720128152
 21
2.8256742955
 31
0.0
  0
LINE
  5
38A
330
1F
100
AcDbEntity
  8
0
  6
Continuous
 62
     7
370
    25
100
AcDbLine
 10
6.2720128152
 20
2.7556742955
 30
0.0
 11
6.1673128152
 21
2.7556742955
 31
0.0
  0
LINE
  5
38B
330
1F
100
AcDbEntity
  8
0
  6
Continuous
 62
     7
370
    25
100
AcDbLine
 10
6.0826128152
 20
2.8956742955
 30
0.0
 11
6.0826128152
 21
2.6656742955
 31
0.0
  0
LINE
  5
38C
330
1F
100
AcDbEntity
  8
0
  6
Continuous
 62
     7
370
    25
100
AcDbLine
 10
6.0420128152
 20
2.9256742955
 30
0.0
 11
6.0526128152
 21
2.9256742955
 31
0.0
  0
LINE
  5
38D
330
1F
100
AcDbEntity
  8
0
  6
Continuous
 62
     7
370
    25
100
AcDbLine
 10
6.0420128152
 20
2.9956742955
 30
0.0
 11
6.0420128152
 21
2.9256742955
 31
0.0
  0
LINE
  5
38E
330
1F
100
AcDbEntity
  8
0
  6
Continuous
 62
     7
370
    25
100
AcDbLine
 10
6.0920128152
 20
2.9956742955
 30
0.0
 11
6.0420128152
 21
2.9956742955
 31
0.0
  0
LINE
  5
38F
330
1F
100
AcDbEntity
  8
0
  6
Continuous
 62
     7
370
    25
100
AcDbLine
 10
6.1220128152
 20
2.7356742955
 30
0.0
 11
6.1220128152
 21
2.9656742955
 31
0.0
  0
LINE
  5
390
330
1F
100
AcDbEntity
  8
0
  6
Continuous
 62
     7
370
    25
100
AcDbLine
 10
6.2720128152
 20
2.7056742955
 30
0.0
 11
6.1520128152
 21
2.7056742955
 31
0.0
  0
LINE
  5
391
330
1F
100
AcDbEntity
  8
0
  6
Continuous
 62
     7
370
    25
100
AcDbLine
 10
6.2720128152
 20
2.6356742955
 30
0.0
 11
6.2720128152
 21
2.7056742955
 31
0.0
  0
LINE
  5
392
330
1F
100
AcDbEntity
  8
0
  6
Continuous
 62
     7
370
    25
100
AcDbLine
 10
6.2720128152
 20
2.6356742955
 30
0.0
 11
6.1126128152
 21
2.6356742955
 31
0.0
  0
LINE
  5
393
330
1F
100
AcDbEntity
  8
0
  6
Continuous
 62
     7
370
    25
100
AcDbLine
 10
6.6970128152
 20
2.9456742955
 30
0.0
 11
6.6970128152
 21
2.8756742955
 31
0.0
  0
LINE
  5
394
330
1F
100
AcDbEntity
  8
0
  6
Continuous
 62
     7
370
    25
100
AcDbLine
 10
6.5220128152
 20
2.9056742955
 30
0.0
 11
6.5220128152
 21
3.1856742955
 31
0.0
  0
LINE
  5
395
330
1F
100
AcDbEntity
  8
0
  6
Continuous
 62
     7
370
    25
100
AcDbLine
 10
6.5220128152
 20
3.1856742955
 30
0.0
 11
6.5023128152
 21
3.1856742955
 31
0.0
  0
LINE
  5
396
330
1F
100
AcDbEntity
  8
0
  6
Continuous
 62
     7
370
    25
100
AcDbLine
 10
6.5023128152
 20
3.1856742955
 30
0.0
 11
6.5023128152
 21
3.2644742955
 31
0.0
  0
LINE
  5
397
330
1F
100
AcDbEntity
  8
0
  6
Continuous
 62
     7
370
    25
100
AcDbLine
 10
6.5023128152
 20
3.2644742955
 30
0.0
 11
6.5811128152
 21
3.2644742955
 31
0.0
  0
LINE
  5
398
330
1F
100
AcDbEntity
  8
0
  6
Continuous
 62
     7
370
    25
100
AcDbLine
 10
6.5811128152
 20
3.2644742955
 30
0.0
 11
6.5811128152
 21
3.1856742955
 31
0.0
  0
LINE
  5
399
330
1F
100
AcDbEntity
  8
0
  6
Continuous
 62
     7
370
    25
100
AcDbLine
 10
6.5811128152
 20
3.1856742955
 30
0.0
 11
6.5614128152
 21
3.1856742955
 31
0.0
  0
LINE
  5
39A
330
1F
100
AcDbEntity
  8
0
  6
Continuous
 62
     7
370
    25
100
AcDbLine
 10
6.5614128152
 20
3.1856742955
 30
0.0
 11
6.5614128152
 21
2.9756742955
 31
0.0
  0
LINE
  5
39B
330
1F
100
AcDbEntity
  8
0
  6
Continuous
 62
     7
370
    25
100
AcDbLine
 10
6.5914128152
 20
2.9456742955
 30
0.0
 11
6.6970128152
 21
2.9456742955
 31
0.0
  0
LINE
  5
39C
330
1F
100
AcDbEntity
  8
0
  6
Continuous
 62
     7
370
    25
100
AcDbLine
 10
6.6970128152
 20
2.8756742955
 30
0.0
 11
6.5520128152
 21
2.8756742955
 31
0.0
  0
LINE
  5
39D
330
1F
100
AcDbEntity
  8
0
  6
Continuous
 62
     7
370
    25
100
AcDbLine
 10
6.6970128152
 20
2.7556742955
 30
0.0
 11
6.6970128152
 21
2.8256742955
 31
0.0
  0
LINE
  5
39E
330
1F
100
AcDbEntity
  8
0
  6
Continuous
 62
     7
370
    25
100
AcDbLine
 10
6.6970128152
 20
2.7556742955
 30
0.0
 11
6.4620128152
 21
2.7556742955
 31
0.0
  0
LINE
  5
39F
330
1F
100
AcDbEntity
  8
0
  6
Continuous
 62
     7
370
    25
100
AcDbLine
 10
6.4320128152
 20
2.7856742955
 30
0.0
 11
6.4320128152
 21
3.0856742955
 31
0.0
  0
LINE
  5
3A0
330
1F
100
AcDbEntity
  8
0
  6
Continuous
 62
     7
370
    25
100
AcDbLine
 10
6.4320128152
 20
3.0856742955
 30
0.0
 11
6.4123128152
 21
3.0856742955
 31
0.0
  0
LINE
  5
3A1
330
1F
100
AcDbEntity
  8
0
  6
Continuous
 62
     7
370
    25
100
AcDbLine
 10
6.4123128152
 20
3.0856742955
 30
0.0
 11
6.4123128152
 21
3.1644742955
 31
0.0
  0
LINE
  5
3A2
330
1F
100
AcDbEntity
  8
0
  6
Continuous
 62
     7
370
    25
100
AcDbLine
 10
6.4123128152
 20
3.1644742955
 30
0.0
 11
6.4911128152
 21
3.1644742955
 31
0.0
  0
LINE
  5
3A3
330
1F
100
AcDbEntity
  8
0
  6
Continuous
 62
     7
370
    25
100
AcDbLine
 10
6.4911128152
 20
3.1644742955
 30
0.0
 11
6.4911128152
 21
3.0856742955
 31
0.0
  0
LINE
  5
3A4
330
1F
100
AcDbEntity
  8
0
  6
Continuous
 62
     7
370
    25
100
AcDbLine
 10
6.4911128152
 20
3.0856742955
 30
0.0
 11
6.4714128152
 21
3.0856742955
 31
0.0
  0
LINE
  5
3A5
330
1F
100
AcDbEntity
  8
0
  6
Continuous
 62
     7
370
    25
100
AcDbLine
 10
6.4714128152
 20
3.0856742955
 30
0.0
 11
6.4714128152
 21
2.8556742955
 31
0.0
  0
LINE
  5
3A6
330
1F
100
AcDbEntity
  8
0
  6
Continuous
 62
     7
370
    25
100
AcDbLine
 10
6.5014128152
 20
2.8256742955
 30
0.0
 11
6.6970128152
 21
2.8256742955
 31
0.0
  0
LINE
  5
3A7
330
1F
100
AcDbEntity
  8
0
  6
Continuous
 62
     7
370
    25
100
AcDbLine
 10
0.2120128152
 20
2.7056742955
 30
0.0
 11
0.2120128152
 21
2.6356742955
 31
0.0
  0
LINE
  5
3A8
330
1F
100
AcDbEntity
  8
0
  6
Continuous
 62
     7
370
    25
100
AcDbLine
 10
0.4420128152
 20
2.7056742955
 30
0.0
 11
0.2120128152
 21
2.7056742955
 31
0.0
  0
LINE
  5
3A9
330
1F
100
AcDbEntity
  8
0
  6
Continuous
 62
     7
370
    25
100
AcDbLine
 10
0.4420128152
 20
2.6356742955
 30
0.0
 11
0.4420128152
 21
2.7056742955
 31
0.0
  0
LINE
  5
3AA
330
1F
100
AcDbEntity
  8
0
  6
Continuous
 62
     7
370
    25
100
AcDbLine
 10
0.2120128152
 20
2.6356742955
 30
0.0
 11
0.4420128152
 21
2.6356742955
 31
0.0
  0
LINE
  5
3AB
330
1F
100
AcDbEntity
  8
0
  6
Continuous
 62
     7
370
    25
100
AcDbLine
 10
-0.6179871848
 20
3.2356742955
 30
0.0
 11
-0.7773871848
 21
3.2356742955
 31
0.0
  0
LINE
  5
3AC
330
1F
100
AcDbEntity
  8
0
  6
Continuous
 62
     7
370
    25
100
AcDbLine
 10
-0.6179871848
 20
3.2356742955
 30
0.0
 11
-0.6179871848
 21
3.1656742955
 31
0.0
  0
LINE
  5
3AD
330
1F
100
AcDbEntity
  8
0
  6
Continuous
 62
     7
370
    25
100
AcDbLine
 10
-0.6179871848
 20
3.1656742955
 30
0.0
 11
-0.7379871848
 21
3.1656742955
 31
0.0
  0
LINE
  5
3AE
330
1F
100
AcDbEntity
  8
0
  6
Continuous
 62
     7
370
    25
100
AcDbLine
 10
-0.7679871848
 20
3.1356742955
 30
0.0
 11
-0.7679871848
 21
2.9056742955
 31
0.0
  0
LINE
  5
3AF
330
1F
100
AcDbEntity
  8
0
  6
Continuous
 62
     7
370
    25
100
AcDbLine
 10
-0.7979871848
 20
2.8756742955
 30
0.0
 11
-0.8479871848
 21
2.8756742955
 31
0.0
  0
LINE
  5
3B0
330
1F
100
AcDbEntity
  8
0
  6
Continuous
 62
     7
370
    25
100
AcDbLine
 10
-0.8479871848
 20
2.8756742955
 30
0.0
 11
-0.8479871848
 21
2.9456742955
 31
0.0
  0
LINE
  5
3B1
330
1F
100
AcDbEntity
  8
0
  6
Continuous
 62
     7
370
    25
100
AcDbLine
 10
-0.8373871848
 20
2.9456742955
 30
0.0
 11
-0.8479871848
 21
2.9456742955
 31
0.0
  0
LINE
  5
3B2
330
1F
100
AcDbEntity
  8
0
  6
Continuous
 62
     7
370
    25
100
AcDbLine
 10
-0.8073871848
 20
3.2056742955
 30
0.0
 11
-0.8073871848
 21
2.9756742955
 31
0.0
  0
LINE
  5
3B3
330
1F
100
AcDbEntity
  8
0
  6
Continuous
 62
     7
370
    25
100
AcDbLine
 10
-0.7526871848
 20
3.0856742955
 30
0.0
 11
-0.7526871848
 21
2.8556742955
 31
0.0
  0
LINE
  5
3B4
330
1F
100
AcDbEntity
  8
0
  6
Continuous
 62
     7
370
    25
100
AcDbLine
 10
-0.7226871848
 20
3.1156742955
 30
0.0
 11
-0.6179871848
 21
3.1156742955
 31
0.0
  0
LINE
  5
3B5
330
1F
100
AcDbEntity
  8
0
  6
Continuous
 62
     7
370
    25
100
AcDbLine
 10
-0.6179871848
 20
3.1156742955
 30
0.0
 11
-0.6179871848
 21
3.0456742955
 31
0.0
  0
LINE
  5
3B6
330
1F
100
AcDbEntity
  8
0
  6
Continuous
 62
     7
370
    25
100
AcDbLine
 10
-0.6179871848
 20
3.0456742955
 30
0.0
 11
-0.6832871848
 21
3.0456742955
 31
0.0
  0
LINE
  5
3B7
330
1F
100
AcDbEntity
  8
0
  6
Continuous
 62
     7
370
    25
100
AcDbLine
 10
-0.7132871848
 20
2.7856742955
 30
0.0
 11
-0.7132871848
 21
3.0156742955
 31
0.0
  0
LINE
  5
3B8
330
1F
100
AcDbEntity
  8
0
  6
Continuous
 62
     7
370
    25
100
AcDbLine
 10
-0.8479871848
 20
2.7556742955
 30
0.0
 11
-0.7432871848
 21
2.7556742955
 31
0.0
  0
LINE
  5
3B9
330
1F
100
AcDbEntity
  8
0
  6
Continuous
 62
     7
370
    25
100
AcDbLine
 10
-0.8479871848
 20
2.8256742955
 30
0.0
 11
-0.7826871848
 21
2.8256742955
 31
0.0
  0
LINE
  5
3BA
330
1F
100
AcDbEntity
  8
0
  6
Continuous
 62
     7
370
    25
100
AcDbLine
 10
-0.8479871848
 20
2.7556742955
 30
0.0
 11
-0.8479871848
 21
2.8256742955
 31
0.0
  0
LINE
  5
3BB
330
1F
100
AcDbEntity
  8
0
  6
Continuous
 62
     7
370
    25
100
AcDbLine
 10
-0.8479871848
 20
2.6356742955
 30
0.0
 11
-0.6885871848
 21
2.6356742955
 31
0.0
  0
LINE
  5
3BC
330
1F
100
AcDbEntity
  8
0
  6
Continuous
 62
     7
370
    25
100
AcDbLine
 10
-0.8479871848
 20
2.7056742955
 30
0.0
 11
-0.7279871848
 21
2.7056742955
 31
0.0
  0
LINE
  5
3BD
330
1F
100
AcDbEntity
  8
0
  6
Continuous
 62
     7
370
    25
100
AcDbLine
 10
-0.6979871848
 20
2.7356742955
 30
0.0
 11
-0.6979871848
 21
2.9656742955
 31
0.0
  0
LINE
  5
3BE
330
1F
100
AcDbEntity
  8
0
  6
Continuous
 62
     7
370
    25
100
AcDbLine
 10
-0.6679871848
 20
2.9956742955
 30
0.0
 11
-0.6179871848
 21
2.9956742955
 31
0.0
  0
LINE
  5
3BF
330
1F
100
AcDbEntity
  8
0
  6
Continuous
 62
     7
370
    25
100
AcDbLine
 10
-0.6179871848
 20
2.9956742955
 30
0.0
 11
-0.6179871848
 21
2.9256742955
 31
0.0
  0
LINE
  5
3C0
330
1F
100
AcDbEntity
  8
0
  6
Continuous
 62
     7
370
    25
100
AcDbLine
 10
-0.6179871848
 20
2.9256742955
 30
0.0
 11
-0.6285871848
 21
2.9256742955
 31
0.0
  0
LINE
  5
3C1
330
1F
100
AcDbEntity
  8
0
  6
Continuous
 62
     7
370
    25
100
AcDbLine
 10
-0.6585871848
 20
2.8956742955
 30
0.0
 11
-0.6585871848
 21
2.6656742955
 31
0.0
  0
LINE
  5
3C2
330
1F
100
AcDbEntity
  8
0
  6
Continuous
 62
     7
370
    25
100
AcDbLine
 10
-0.8479871848
 20
2.6356742955
 30
0.0
 11
-0.8479871848
 21
2.7056742955
 31
0.0
  0
LINE
  5
3C3
330
1F
100
AcDbEntity
  8
0
  6
Continuous
 62
     7
370
    25
100
AcDbLine
 10
-0.2773871848
 20
2.8956742955
 30
0.0
 11
-0.2773871848
 21
2.6656742955
 31
0.0
  0
LINE
  5
3C4
330
1F
100
AcDbEntity
  8
0
  6
Continuous
 62
     7
370
    25
100
AcDbLine
 10
-0.3179871848
 20
2.9256742955
 30
0.0
 11
-0.3073871848
 21
2.9256742955
 31
0.0
  0
LINE
  5
3C5
330
1F
100
AcDbEntity
  8
0
  6
Continuous
 62
     7
370
    25
100
AcDbLine
 10
-0.3179871848
 20
2.9956742955
 30
0.0
 11
-0.3179871848
 21
2.9256742955
 31
0.0
  0
LINE
  5
3C6
330
1F
100
AcDbEntity
  8
0
  6
Continuous
 62
     7
370
    25
100
AcDbLine
 10
-0.2679871848
 20
2.9956742955
 30
0.0
 11
-0.3179871848
 21
2.9956742955
 31
0.0
  0
LINE
  5
3C7
330
1F
100
AcDbEntity
  8
0
  6
Continuous
 62
     7
370
    25
100
AcDbLine
 10
-0.2379871848
 20
2.7356742955
 30
0.0
 11
-0.2379871848
 21
2.9656742955
 31
0.0
  0
LINE
  5
3C8
330
1F
100
AcDbEntity
  8
0
  6
Continuous
 62
     7
370
    25
100
AcDbLine
 10
-0.0879871848
 20
2.7056742955
 30
0.0
 11
-0.2079871848
 21
2.7056742955
 31
0.0
  0
LINE
  5
3C9
330
1F
100
AcDbEntity
  8
0
  6
Continuous
 62
     7
370
    25
100
AcDbLine
 10
-0.0879871848
 20
2.6356742955
 30
0.0
 11
-0.0879871848
 21
2.7056742955
 31
0.0
  0
LINE
  5
3CA
330
1F
100
AcDbEntity
  8
0
  6
Continuous
 62
     7
370
    25
100
AcDbLine
 10
-0.0879871848
 20
2.6356742955
 30
0.0
 11
-0.2473871848
 21
2.6356742955
 31
0.0
  0
LINE
  5
3CB
330
1F
100
AcDbEntity
  8
0
  6
Continuous
 62
     7
370
    25
100
AcDbLine
 10
-0.2226871848
 20
2.7856742955
 30
0.0
 11
-0.2226871848
 21
3.0156742955
 31
0.0
  0
LINE
  5
3CC
330
1F
100
AcDbEntity
  8
0
  6
Continuous
 62
     7
370
    25
100
AcDbLine
 10
-0.3179871848
 20
3.0456742955
 30
0.0
 11
-0.2526871848
 21
3.0456742955
 31
0.0
  0
LINE
  5
3CD
330
1F
100
AcDbEntity
  8
0
  6
Continuous
 62
     7
370
    25
100
AcDbLine
 10
-0.3179871848
 20
3.1156742955
 30
0.0
 11
-0.3179871848
 21
3.0456742955
 31
0.0
  0
LINE
  5
3CE
330
1F
100
AcDbEntity
  8
0
  6
Continuous
 62
     7
370
    25
100
AcDbLine
 10
-0.2132871848
 20
3.1156742955
 30
0.0
 11
-0.3179871848
 21
3.1156742955
 31
0.0
  0
LINE
  5
3CF
330
1F
100
AcDbEntity
  8
0
  6
Continuous
 62
     7
370
    25
100
AcDbLine
 10
-0.1832871848
 20
3.0856742955
 30
0.0
 11
-0.1832871848
 21
2.8556742955
 31
0.0
  0
LINE
  5
3D0
330
1F
100
AcDbEntity
  8
0
  6
Continuous
 62
     7
370
    25
100
AcDbLine
 10
-0.0879871848
 20
2.8256742955
 30
0.0
 11
-0.1532871848
 21
2.8256742955
 31
0.0
  0
LINE
  5
3D1
330
1F
100
AcDbEntity
  8
0
  6
Continuous
 62
     7
370
    25
100
AcDbLine
 10
-0.0879871848
 20
2.7556742955
 30
0.0
 11
-0.0879871848
 21
2.8256742955
 31
0.0
  0
LINE
  5
3D2
330
1F
100
AcDbEntity
  8
0
  6
Continuous
 62
     7
370
    25
100
AcDbLine
 10
-0.0879871848
 20
2.7556742955
 30
0.0
 11
-0.1926871848
 21
2.7556742955
 31
0.0
  0
LINE
  5
3D3
330
1F
100
AcDbEntity
  8
0
  6
Continuous
 62
     7
370
    25
100
AcDbLine
 10
-0.1679871848
 20
3.1356742955
 30
0.0
 11
-0.1679871848
 21
2.9056742955
 31
0.0
  0
LINE
  5
3D4
330
1F
100
AcDbEntity
  8
0
  6
Continuous
 62
     7
370
    25
100
AcDbLine
 10
-0.3179871848
 20
3.1656742955
 30
0.0
 11
-0.1979871848
 21
3.1656742955
 31
0.0
  0
LINE
  5
3D5
330
1F
100
AcDbEntity
  8
0
  6
Continuous
 62
     7
370
    25
100
AcDbLine
 10
-0.3179871848
 20
3.2356742955
 30
0.0
 11
-0.3179871848
 21
3.1656742955
 31
0.0
  0
LINE
  5
3D6
330
1F
100
AcDbEntity
  8
0
  6
Continuous
 62
     7
370
    25
100
AcDbLine
 10
-0.3179871848
 20
3.2356742955
 30
0.0
 11
-0.1585871848
 21
3.2356742955
 31
0.0
  0
LINE
  5
3D7
330
1F
100
AcDbEntity
  8
0
  6
Continuous
 62
     7
370
    25
100
AcDbLine
 10
-0.1285871848
 20
3.2056742955
 30
0.0
 11
-0.1285871848
 21
2.9756742955
 31
0.0
  0
LINE
  5
3D8
330
1F
100
AcDbEntity
  8
0
  6
Continuous
 62
     7
370
    25
100
AcDbLine
 10
-0.0985871848
 20
2.9456742955
 30
0.0
 11
-0.0879871848
 21
2.9456742955
 31
0.0
  0
LINE
  5
3D9
330
1F
100
AcDbEntity
  8
0
  6
Continuous
 62
     7
370
    25
100
AcDbLine
 10
-0.0879871848
 20
2.8756742955
 30
0.0
 11
-0.0879871848
 21
2.9456742955
 31
0.0
  0
LINE
  5
3DA
330
1F
100
AcDbEntity
  8
0
  6
Continuous
 62
     7
370
    25
100
AcDbLine
 10
-0.1379871848
 20
2.8756742955
 30
0.0
 11
-0.0879871848
 21
2.8756742955
 31
0.0
  0
LINE
  5
3DB
330
1F
100
AcDbEntity
  8
0
  6
Continuous
 62
     7
370
    25
100
AcDbLine
 10
0.2120128152
 20
2.8756742955
 30
0.0
 11
0.2120128152
 21
2.9456742955
 31
0.0
  0
LINE
  5
3DC
330
1F
100
AcDbEntity
  8
0
  6
Continuous
 62
     7
370
    25
100
AcDbLine
 10
0.2120128152
 20
2.9456742955
 30
0.0
 11
0.4420128152
 21
2.9456742955
 31
0.0
  0
LINE
  5
3DD
330
1F
100
AcDbEntity
  8
0
  6
Continuous
 62
     7
370
    25
100
AcDbLine
 10
0.4420128152
 20
2.9456742955
 30
0.0
 11
0.4420128152
 21
2.8756742955
 31
0.0
  0
LINE
  5
3DE
330
1F
100
AcDbEntity
  8
0
  6
Continuous
 62
     7
370
    25
100
AcDbLine
 10
0.4420128152
 20
2.8756742955
 30
0.0
 11
0.2120128152
 21
2.8756742955
 31
0.0
  0
LINE
  5
3DF
330
1F
100
AcDbEntity
  8
0
  6
Continuous
 62
     7
370
    25
100
AcDbLine
 10
0.4420128152
 20
2.7556742955
 30
0.0
 11
0.4420128152
 21
2.8256742955
 31
0.0
  0
LINE
  5
3E0
330
1F
100
AcDbEntity
  8
0
  6
Continuous
 62
     7
370
    25
100
AcDbLine
 10
0.2120128152
 20
2.7556742955
 30
0.0
 11
0.4420128152
 21
2.7556742955
 31
0.0
  0
LINE
  5
3E1
330
1F
100
AcDbEntity
  8
0
  6
Continuous
 62
     7
370
    25
100
AcDbLine
 10
0.2120128152
 20
2.8256742955
 30
0.0
 11
0.2120128152
 21
2.7556742955
 31
0.0
  0
LINE
  5
3E2
330
1F
100
AcDbEntity
  8
0
  6
Continuous
 62
     7
370
    25
100
AcDbLine
 10
0.4420128152
 20
2.8256742955
 30
0.0
 11
0.2120128152
 21
2.8256742955
 31
0.0
  0
LINE
  5
3E3
330
1F
100
AcDbEntity
  8
0
  6
Continuous
 62
     7
370
    25
100
AcDbLine
 10
-1.2729871848
 20
2.7056742955
 30
0.0
 11
-1.2729871848
 21
2.6356742955
 31
0.0
  0
LINE
  5
3E4
330
1F
100
AcDbEntity
  8
0
  6
Continuous
 62
     7
370
    25
100
AcDbLine
 10
-0.9873871848
 20
2.7056742955
 30
0.0
 11
-1.2729871848
 21
2.7056742955
 31
0.0
  0
LINE
  5
3E5
330
1F
100
AcDbEntity
  8
0
  6
Continuous
 62
     7
370
    25
100
AcDbLine
 10
-0.9573871848
 20
3.1856742955
 30
0.0
 11
-0.9573871848
 21
2.7356742955
 31
0.0
  0
LINE
  5
3E6
330
1F
100
AcDbEntity
  8
0
  6
Continuous
 62
     7
370
    25
100
AcDbLine
 10
-0.9770871848
 20
3.1856742955
 30
0.0
 11
-0.9573871848
 21
3.1856742955
 31
0.0
  0
LINE
  5
3E7
330
1F
100
AcDbEntity
  8
0
  6
Continuous
 62
     7
370
    25
100
AcDbLine
 10
-0.9770871848
 20
3.2644742955
 30
0.0
 11
-0.9770871848
 21
3.1856742955
 31
0.0
  0
LINE
  5
3E8
330
1F
100
AcDbEntity
  8
0
  6
Continuous
 62
     7
370
    25
100
AcDbLine
 10
-0.8982871848
 20
3.2644742955
 30
0.0
 11
-0.9770871848
 21
3.2644742955
 31
0.0
  0
LINE
  5
3E9
330
1F
100
AcDbEntity
  8
0
  6
Continuous
 62
     7
370
    25
100
AcDbLine
 10
-0.8982871848
 20
3.1856742955
 30
0.0
 11
-0.8982871848
 21
3.2644742955
 31
0.0
  0
LINE
  5
3EA
330
1F
100
AcDbEntity
  8
0
  6
Continuous
 62
     7
370
    25
100
AcDbLine
 10
-0.9179871848
 20
3.1856742955
 30
0.0
 11
-0.8982871848
 21
3.1856742955
 31
0.0
  0
LINE
  5
3EB
330
1F
100
AcDbEntity
  8
0
  6
Continuous
 62
     7
370
    25
100
AcDbLine
 10
-0.9179871848
 20
2.6656742955
 30
0.0
 11
-0.9179871848
 21
3.1856742955
 31
0.0
  0
LINE
  5
3EC
330
1F
100
AcDbEntity
  8
0
  6
Continuous
 62
     7
370
    25
100
AcDbLine
 10
-1.2729871848
 20
2.6356742955
 30
0.0
 11
-0.9479871848
 21
2.6356742955
 31
0.0
  0
LINE
  5
3ED
330
1F
100
AcDbEntity
  8
0
  6
Continuous
 62
     7
370
    25
100
AcDbLine
 10
-1.2729871848
 20
2.9456742955
 30
0.0
 11
-1.2729871848
 21
2.8756742955
 31
0.0
  0
LINE
  5
3EE
330
1F
100
AcDbEntity
  8
0
  6
Continuous
 62
     7
370
    25
100
AcDbLine
 10
-1.1570871848
 20
3.1856742955
 30
0.0
 11
-1.1373871848
 21
3.1856742955
 31
0.0
  0
LINE
  5
3EF
330
1F
100
AcDbEntity
  8
0
  6
Continuous
 62
     7
370
    25
100
AcDbLine
 10
-1.1570871848
 20
3.2644742955
 30
0.0
 11
-1.1570871848
 21
3.1856742955
 31
0.0
  0
LINE
  5
3F0
330
1F
100
AcDbEntity
  8
0
  6
Continuous
 62
     7
370
    25
100
AcDbLine
 10
-1.0782871848
 20
3.2644742955
 30
0.0
 11
-1.1570871848
 21
3.2644742955
 31
0.0
  0
LINE
  5
3F1
330
1F
100
AcDbEntity
  8
0
  6
Continuous
 62
     7
370
    25
100
AcDbLine
 10
-1.2729871848
 20
2.8756742955
 30
0.0
 11
-1.1279871848
 21
2.8756742955
 31
0.0
  0
LINE
  5
3F2
330
1F
100
AcDbEntity
  8
0
  6
Continuous
 62
     7
370
    25
100
AcDbLine
 10
-1.1673871848
 20
2.9456742955
 30
0.0
 11
-1.2729871848
 21
2.9456742955
 31
0.0
  0
LINE
  5
3F3
330
1F
100
AcDbEntity
  8
0
  6
Continuous
 62
     7
370
    25
100
AcDbLine
 10
-1.0782871848
 20
3.1856742955
 30
0.0
 11
-1.0782871848
 21
3.2644742955
 31
0.0
  0
LINE
  5
3F4
330
1F
100
AcDbEntity
  8
0
  6
Continuous
 62
     7
370
    25
100
AcDbLine
 10
-1.0979871848
 20
3.1856742955
 30
0.0
 11
-1.0782871848
 21
3.1856742955
 31
0.0
  0
LINE
  5
3F5
330
1F
100
AcDbEntity
  8
0
  6
Continuous
 62
     7
370
    25
100
AcDbLine
 10
-1.0979871848
 20
2.9056742955
 30
0.0
 11
-1.0979871848
 21
3.1856742955
 31
0.0
  0
LINE
  5
3F6
330
1F
100
AcDbEntity
  8
0
  6
Continuous
 62
     7
370
    25
100
AcDbLine
 10
-1.1373871848
 20
3.1856742955
 30
0.0
 11
-1.1373871848
 21
2.9756742955
 31
0.0
  0
LINE
  5
3F7
330
1F
100
AcDbEntity
  8
0
  6
Continuous
 62
     7
370
    25
100
AcDbLine
 10
-1.2729871848
 20
2.8256742955
 30
0.0
 11
-1.2729871848
 21
2.7556742955
 31
0.0
  0
LINE
  5
3F8
330
1F
100
AcDbEntity
  8
0
  6
Continuous
 62
     7
370
    25
100
AcDbLine
 10
-1.0473871848
 20
3.0856742955
 30
0.0
 11
-1.0473871848
 21
2.8556742955
 31
0.0
  0
LINE
  5
3F9
330
1F
100
AcDbEntity
  8
0
  6
Continuous
 62
     7
370
    25
100
AcDbLine
 10
-1.0670871848
 20
3.0856742955
 30
0.0
 11
-1.0473871848
 21
3.0856742955
 31
0.0
  0
LINE
  5
3FA
330
1F
100
AcDbEntity
  8
0
  6
Continuous
 62
     7
370
    25
100
AcDbLine
 10
-1.0670871848
 20
3.1644742955
 30
0.0
 11
-1.0670871848
 21
3.0856742955
 31
0.0
  0
LINE
  5
3FB
330
1F
100
AcDbEntity
  8
0
  6
Continuous
 62
     7
370
    25
100
AcDbLine
 10
-0.9882871848
 20
3.1644742955
 30
0.0
 11
-1.0670871848
 21
3.1644742955
 31
0.0
  0
LINE
  5
3FC
330
1F
100
AcDbEntity
  8
0
  6
Continuous
 62
     7
370
    25
100
AcDbLine
 10
-0.9882871848
 20
3.0856742955
 30
0.0
 11
-0.9882871848
 21
3.1644742955
 31
0.0
  0
LINE
  5
3FD
330
1F
100
AcDbEntity
  8
0
  6
Continuous
 62
     7
370
    25
100
AcDbLine
 10
-1.0079871848
 20
3.0856742955
 30
0.0
 11
-0.9882871848
 21
3.0856742955
 31
0.0
  0
LINE
  5
3FE
330
1F
100
AcDbEntity
  8
0
  6
Continuous
 62
     7
370
    25
100
AcDbLine
 10
-1.0079871848
 20
2.7856742955
 30
0.0
 11
-1.0079871848
 21
3.0856742955
 31
0.0
  0
LINE
  5
3FF
330
1F
100
AcDbEntity
  8
0
  6
Continuous
 62
     7
370
    25
100
AcDbLine
 10
-1.2729871848
 20
2.7556742955
 30
0.0
 11
-1.0379871848
 21
2.7556742955
 31
0.0
  0
LINE
  5
400
330
1F
100
AcDbEntity
  8
0
  6
Continuous
 62
     7
370
    25
100
AcDbLine
 10
-1.0773871848
 20
2.8256742955
 30
0.0
 11
-1.2729871848
 21
2.8256742955
 31
0.0
  0
LINE
  5
401
330
1F
100
AcDbEntity
  8
0
  6
Continuous
 62
     7
370
    25
100
AcDbLine
 10
6.7070128152
 20
3.2836742955
 30
0.0
 11
-1.2829871848
 21
3.2836742955
 31
0.0
  0
LINE
  5
402
330
1F
100
AcDbEntity
  8
0
  6
Continuous
 62
     7
370
    25
100
AcDbLine
 10
6.7070128152
 20
2.5876742955
 30
0.0
 11
6.7070128152
 21
3.2836742955
 31
0.0
  0
LINE
  5
403
330
1F
100
AcDbEntity
  8
0
  6
Continuous
 62
     7
370
    25
100
AcDbLine
 10
-1.2829871848
 20
2.5876742955
 30
0.0
 11
6.7070128152
 21
2.5876742955
 31
0.0
  0
LINE
  5
404
330
1F
100
AcDbEntity
  8
0
  6
Continuous
 62
     7
370
    25
100
AcDbLine
 10
-1.2829871848
 20
3.2836742955
 30
0.0
 11
-1.2829871848
 21
2.5876742955
 31
0.0
  0
ARC
  5
405
330
1F
100
AcDbEntity
  8
0
  6
Continuous
 62
     7
370
    25
100
AcDbCircle
 10
6.4114128152
 20
2.7356742955
 30
0.0
 40
0.0300000000000007
100
AcDbArc
 50
180.0
 51
270.0
  0
ARC
  5
406
330
1F
100
AcDbEntity
  8
0
  6
Continuous
 62
     7
370
    25
100
AcDbCircle
 10
6.3720128152
 20
2.6656742955
 30
0.0
 40
0.0299999999999994
100
AcDbArc
 50
180.0
 51
270.0
  0
ARC
  5
407
330
1F
100
AcDbEntity
  8
0
  6
Continuous
 62
     7
370
    25
100
AcDbCircle
 10
0.8520128152
 20
3.1356742955
 30
0.0
 40
0.0300000000000004
100
AcDbArc
 50
90.0
 51
180.0
  0
ARC
  5
408
330
1F
100
AcDbEntity
  8
0
  6
Continuous
 62
     7
370
    25
100
AcDbCircle
 10
0.7920128152
 20
2.9056742955
 30
0.0
 40
0.0299999999999994
100
AcDbArc
 50
270.0
 51
0.0
  0
ARC
  5
409
330
1F
100
AcDbEntity
  8
0
  6
Continuous
 62
     7
370
    25
100
AcDbCircle
 10
0.7526128152
 20
2.9756742955
 30
0.0
 40
0.0299999999999998
100
AcDbArc
 50
270.0
 51
0.0
  0
ARC
  5
40A
330
1F
100
AcDbEntity
  8
0
  6
Continuous
 62
     7
370
    25
100
AcDbCircle
 10
0.8126128152
 20
3.2056742955
 30
0.0
 40
0.0300000000000002
100
AcDbArc
 50
90.0
 51
180.0
  0
ARC
  5
40B
330
1F
100
AcDbEntity
  8
0
  6
Continuous
 62
     7
370
    25
100
AcDbCircle
 10
0.9067128152
 20
3.0156742955
 30
0.0
 40
0.0299999999999994
100
AcDbArc
 50
90.0
 51
180.0
  0
ARC
  5
40C
330
1F
100
AcDbEntity
  8
0
  6
Continuous
 62
     7
370
    25
100
AcDbCircle
 10
0.8467128152
 20
2.7856742955
 30
0.0
 40
0.0300000000000007
100
AcDbArc
 50
270.0
 51
0.0
  0
ARC
  5
40D
330
1F
100
AcDbEntity
  8
0
  6
Continuous
 62
     7
370
    25
100
AcDbCircle
 10
0.8073128152
 20
2.8556742955
 30
0.0
 40
0.0299999999999998
100
AcDbArc
 50
270.0
 51
0.0
  0
ARC
  5
40E
330
1F
100
AcDbEntity
  8
0
  6
Continuous
 62
     7
370
    25
100
AcDbCircle
 10
0.8673128152
 20
3.0856742955
 30
0.0
 40
0.0300000000000007
100
AcDbArc
 50
90.0
 51
180.0
  0
ARC
  5
40F
330
1F
100
AcDbEntity
  8
0
  6
Continuous
 62
     7
370
    25
100
AcDbCircle
 10
0.9614128152
 20
2.8956742955
 30
0.0
 40
0.0300000000000002
100
AcDbArc
 50
90.0
 51
180.0
  0
ARC
  5
410
330
1F
100
AcDbEntity
  8
0
  6
Continuous
 62
     7
370
    25
100
AcDbCircle
 10
0.9014128152
 20
2.6656742955
 30
0.0
 40
0.0300000000000007
100
AcDbArc
 50
270.0
 51
360.0
  0
ARC
  5
411
330
1F
100
AcDbEntity
  8
0
  6
Continuous
 62
     7
370
    25
100
AcDbCircle
 10
0.8620128152
 20
2.7356742955
 30
0.0
 40
0.03
100
AcDbArc
 50
270.0
 51
0.0
  0
ARC
  5
412
330
1F
100
AcDbEntity
  8
0
  6
Continuous
 62
     7
370
    25
100
AcDbCircle
 10
0.9220128152
 20
2.9656742955
 30
0.0
 40
0.0300000000000007
100
AcDbArc
 50
90.0
 51
180.0
  0
ARC
  5
413
330
1F
100
AcDbEntity
  8
0
  6
Continuous
 62
     7
370
    25
100
AcDbCircle
 10
1.3820128152
 20
2.7356742955
 30
0.0
 40
0.0300000000000007
100
AcDbArc
 50
180.0
 51
270.0
  0
ARC
  5
414
330
1F
100
AcDbEntity
  8
0
  6
Continuous
 62
     7
370
    25
100
AcDbCircle
 10
1.3426128152
 20
2.6656742955
 30
0.0
 40
0.0300000000000009
100
AcDbArc
 50
180.0
 51
270.0
  0
ARC
  5
415
330
1F
100
AcDbEntity
  8
0
  6
Continuous
 62
     7
370
    25
100
AcDbCircle
 10
1.2826128152
 20
2.8956742955
 30
0.0
 40
0.0300000000000005
100
AcDbArc
 50
0.0
 51
90.0
  0
ARC
  5
416
330
1F
100
AcDbEntity
  8
0
  6
Continuous
 62
     7
370
    25
100
AcDbCircle
 10
1.3220128152
 20
2.9656742955
 30
0.0
 40
0.0300000000000007
100
AcDbArc
 50
0.0
 51
90.0
  0
ARC
  5
417
330
1F
100
AcDbEntity
  8
0
  6
Continuous
 62
     7
370
    25
100
AcDbCircle
 10
1.4367128152
 20
2.8556742955
 30
0.0
 40
0.0300000000000002
100
AcDbArc
 50
180.0
 51
270.0
  0
ARC
  5
418
330
1F
100
AcDbEntity
  8
0
  6
Continuous
 62
     7
370
    25
100
AcDbCircle
 10
1.3973128152
 20
2.7856742955
 30
0.0
 40
0.0300000000000007
100
AcDbArc
 50
180.0
 51
270.0
  0
ARC
  5
419
330
1F
100
AcDbEntity
  8
0
  6
Continuous
 62
     7
370
    25
100
AcDbCircle
 10
1.3373128152
 20
3.0156742955
 30
0.0
 40
0.0299999999999998
100
AcDbArc
 50
0.0
 51
90.0
  0
ARC
  5
41A
330
1F
100
AcDbEntity
  8
0
  6
Continuous
 62
     7
370
    25
100
AcDbCircle
 10
1.3767128152
 20
3.0856742955
 30
0.0
 40
0.0300000000000007
100
AcDbArc
 50
0.0
 51
90.0
  0
ARC
  5
41B
330
1F
100
AcDbEntity
  8
0
  6
Continuous
 62
     7
370
    25
100
AcDbCircle
 10
1.4914128152
 20
2.9756742955
 30
0.0
 40
0.0300000000000007
100
AcDbArc
 50
180.0
 51
270.0
  0
ARC
  5
41C
330
1F
100
AcDbEntity
  8
0
  6
Continuous
 62
     7
370
    25
100
AcDbCircle
 10
1.4520128152
 20
2.9056742955
 30
0.0
 40
0.0300000000000009
100
AcDbArc
 50
180.0
 51
270.0
  0
ARC
  5
41D
330
1F
100
AcDbEntity
  8
0
  6
Continuous
 62
     7
370
    25
100
AcDbCircle
 10
1.3920128152
 20
3.1356742955
 30
0.0
 40
0.0300000000000002
100
AcDbArc
 50
0.0
 51
90.0
  0
ARC
  5
41E
330
1F
100
AcDbEntity
  8
0
  6
Continuous
 62
     7
370
    25
100
AcDbCircle
 10
1.4314128152
 20
3.2056742955
 30
0.0
 40
0.0300000000000009
100
AcDbArc
 50
0.0
 51
90.0
  0
ARC
  5
41F
330
1F
100
AcDbEntity
  8
0
  6
Continuous
 62
     7
370
    25
100
AcDbCircle
 10
1.9120128152
 20
3.1356742955
 30
0.0
 40
0.0300000000000007
100
AcDbArc
 50
90.0
 51
180.0
  0
ARC
  5
420
330
1F
100
AcDbEntity
  8
0
  6
Continuous
 62
     7
370
    25
100
AcDbCircle
 10
1.8520128152
 20
2.9056742955
 30
0.0
 40
0.0299999999999989
100
AcDbArc
 50
270.0
 51
0.0
  0
ARC
  5
421
330
1F
100
AcDbEntity
  8
0
  6
Continuous
 62
     7
370
    25
100
AcDbCircle
 10
1.8126128152
 20
2.9756742955
 30
0.0
 40
0.0300000000000002
100
AcDbArc
 50
270.0
 51
0.0
  0
ARC
  5
422
330
1F
100
AcDbEntity
  8
0
  6
Continuous
 62
     7
370
    25
100
AcDbCircle
 10
1.8726128152
 20
3.2056742955
 30
0.0
 40
0.0300000000000002
100
AcDbArc
 50
90.0
 51
180.0
  0
ARC
  5
423
330
1F
100
AcDbEntity
  8
0
  6
Continuous
 62
     7
370
    25
100
AcDbCircle
 10
1.9667128152
 20
3.0156742955
 30
0.0
 40
0.0300000000000002
100
AcDbArc
 50
90.0
 51
180.0
  0
ARC
  5
424
330
1F
100
AcDbEntity
  8
0
  6
Continuous
 62
     7
370
    25
100
AcDbCircle
 10
1.9067128152
 20
2.7856742955
 30
0.0
 40
0.0300000000000011
100
AcDbArc
 50
270.0
 51
0.0
  0
ARC
  5
425
330
1F
100
AcDbEntity
  8
0
  6
Continuous
 62
     7
370
    25
100
AcDbCircle
 10
1.8673128152
 20
2.8556742955
 30
0.0
 40
0.0300000000000002
100
AcDbArc
 50
270.0
 51
0.0
  0
ARC
  5
426
330
1F
100
AcDbEntity
  8
0
  6
Continuous
 62
     7
370
    25
100
AcDbCircle
 10
1.9273128152
 20
3.0856742955
 30
0.0
 40
0.0300000000000007
100
AcDbArc
 50
90.0
 51
180.0
  0
ARC
  5
427
330
1F
100
AcDbEntity
  8
0
  6
Continuous
 62
     7
370
    25
100
AcDbCircle
 10
2.0214128152
 20
2.8956742955
 30
0.0
 40
0.0300000000000007
100
AcDbArc
 50
90.0
 51
180.0
  0
ARC
  5
428
330
1F
100
AcDbEntity
  8
0
  6
Continuous
 62
     7
370
    25
100
AcDbCircle
 10
1.9614128152
 20
2.6656742955
 30
0.0
 40
0.0299999999999998
100
AcDbArc
 50
270.0
 51
0.0
  0
ARC
  5
429
330
1F
100
AcDbEntity
  8
0
  6
Continuous
 62
     7
370
    25
100
AcDbCircle
 10
1.9220128152
 20
2.7356742955
 30
0.0
 40
0.0300000000000007
100
AcDbArc
 50
270.0
 51
360.0
  0
ARC
  5
42A
330
1F
100
AcDbEntity
  8
0
  6
Continuous
 62
     7
370
    25
100
AcDbCircle
 10
1.9820128152
 20
2.9656742955
 30
0.0
 40
0.0300000000000007
100
AcDbArc
 50
90.0
 51
180.0
  0
ARC
  5
42B
330
1F
100
AcDbEntity
  8
0
  6
Continuous
 62
     7
370
    25
100
AcDbCircle
 10
2.4420128152
 20
2.7356742955
 30
0.0
 40
0.0300000000000007
100
AcDbArc
 50
180.0
 51
270.0
  0
ARC
  5
42C
330
1F
100
AcDbEntity
  8
0
  6
Continuous
 62
     7
370
    25
100
AcDbCircle
 10
2.4026128152
 20
2.6656742955
 30
0.0
 40
0.0300000000000007
100
AcDbArc
 50
180.0
 51
270.0
  0
ARC
  5
42D
330
1F
100
AcDbEntity
  8
0
  6
Continuous
 62
     7
370
    25
100
AcDbCircle
 10
2.3426128152
 20
2.8956742955
 30
0.0
 40
0.0300000000000002
100
AcDbArc
 50
0.0
 51
90.0
  0
ARC
  5
42E
330
1F
100
AcDbEntity
  8
0
  6
Continuous
 62
     7
370
    25
100
AcDbCircle
 10
2.3820128152
 20
2.9656742955
 30
0.0
 40
0.0299999999999998
100
AcDbArc
 50
0.0
 51
90.0
  0
ARC
  5
42F
330
1F
100
AcDbEntity
  8
0
  6
Continuous
 62
     7
370
    25
100
AcDbCircle
 10
2.4967128152
 20
2.8556742955
 30
0.0
 40
0.0300000000000002
100
AcDbArc
 50
180.0
 51
270.0
  0
ARC
  5
430
330
1F
100
AcDbEntity
  8
0
  6
Continuous
 62
     7
370
    25
100
AcDbCircle
 10
2.4573128152
 20
2.7856742955
 30
0.0
 40
0.0300000000000011
100
AcDbArc
 50
180.0
 51
270.0
  0
ARC
  5
431
330
1F
100
AcDbEntity
  8
0
  6
Continuous
 62
     7
370
    25
100
AcDbCircle
 10
2.3973128152
 20
3.0156742955
 30
0.0
 40
0.0299999999999998
100
AcDbArc
 50
0.0
 51
90.0
  0
ARC
  5
432
330
1F
100
AcDbEntity
  8
0
  6
Continuous
 62
     7
370
    25
100
AcDbCircle
 10
2.4367128152
 20
3.0856742955
 30
0.0
 40
0.0300000000000007
100
AcDbArc
 50
0.0
 51
90.0
  0
ARC
  5
433
330
1F
100
AcDbEntity
  8
0
  6
Continuous
 62
     7
370
    25
100
AcDbCircle
 10
2.5514128152
 20
2.9756742955
 30
0.0
 40
0.0300000000000002
100
AcDbArc
 50
180.0
 51
270.0
  0
ARC
  5
434
330
1F
100
AcDbEntity
  8
0
  6
Continuous
 62
     7
370
    25
100
AcDbCircle
 10
2.5120128152
 20
2.9056742955
 30
0.0
 40
0.0300000000000016
100
AcDbArc
 50
180.0
 51
270.0
  0
ARC
  5
435
330
1F
100
AcDbEntity
  8
0
  6
Continuous
 62
     7
370
    25
100
AcDbCircle
 10
2.4520128152
 20
3.1356742955
 30
0.0
 40
0.0300000000000007
100
AcDbArc
 50
0.0
 51
90.0
  0
ARC
  5
436
330
1F
100
AcDbEntity
  8
0
  6
Continuous
 62
     7
370
    25
100
AcDbCircle
 10
2.4914128152
 20
3.2056742955
 30
0.0
 40
0.0300000000000007
100
AcDbArc
 50
0.0
 51
90.0
  0
ARC
  5
437
330
1F
100
AcDbEntity
  8
0
  6
Continuous
 62
     7
370
    25
100
AcDbCircle
 10
3.6114128152
 20
2.8956742955
 30
0.0
 40
0.030000000000002
100
AcDbArc
 50
90.0
 51
180.0
  0
ARC
  5
438
330
1F
100
AcDbEntity
  8
0
  6
Continuous
 62
     7
370
    25
100
AcDbCircle
 10
3.5514128152
 20
2.6656742955
 30
0.0
 40
0.0300000000000011
100
AcDbArc
 50
270.0
 51
360.0
  0
ARC
  5
439
330
1F
100
AcDbEntity
  8
0
  6
Continuous
 62
     7
370
    25
100
AcDbCircle
 10
3.5120128152
 20
2.7356742955
 30
0.0
 40
0.0300000000000016
100
AcDbArc
 50
270.0
 51
360.0
  0
ARC
  5
43A
330
1F
100
AcDbEntity
  8
0
  6
Continuous
 62
     7
370
    25
100
AcDbCircle
 10
3.5720128152
 20
2.9656742955
 30
0.0
 40
0.0300000000000002
100
AcDbArc
 50
90.0
 51
180.0
  0
ARC
  5
43B
330
1F
100
AcDbEntity
  8
0
  6
Continuous
 62
     7
370
    25
100
AcDbCircle
 10
3.5567128152
 20
3.0156742955
 30
0.0
 40
0.0300000000000007
100
AcDbArc
 50
90.0
 51
180.0
  0
ARC
  5
43C
330
1F
100
AcDbEntity
  8
0
  6
Continuous
 62
     7
370
    25
100
AcDbCircle
 10
3.4967128152
 20
2.7856742955
 30
0.0
 40
0.0300000000000011
100
AcDbArc
 50
270.0
 51
0.0
  0
ARC
  5
43D
330
1F
100
AcDbEntity
  8
0
  6
Continuous
 62
     7
370
    25
100
AcDbCircle
 10
3.4573128152
 20
2.8556742955
 30
0.0
 40
0.0300000000000011
100
AcDbArc
 50
270.0
 51
0.0
  0
ARC
  5
43E
330
1F
100
AcDbEntity
  8
0
  6
Continuous
 62
     7
370
    25
100
AcDbCircle
 10
3.5173128152
 20
3.0856742955
 30
0.0
 40
0.0300000000000002
100
AcDbArc
 50
90.0
 51
180.0
  0
ARC
  5
43F
330
1F
100
AcDbEntity
  8
0
  6
Continuous
 62
     7
370
    25
100
AcDbCircle
 10
3.5020128152
 20
3.1356742955
 30
0.0
 40
0.0300000000000007
100
AcDbArc
 50
90.0
 51
180.0
  0
ARC
  5
440
330
1F
100
AcDbEntity
  8
0
  6
Continuous
 62
     7
370
    25
100
AcDbCircle
 10
3.4420128152
 20
2.9056742955
 30
0.0
 40
0.0299999999999998
100
AcDbArc
 50
270.0
 51
0.0
  0
ARC
  5
441
330
1F
100
AcDbEntity
  8
0
  6
Continuous
 62
     7
370
    25
100
AcDbCircle
 10
3.4026128152
 20
2.9756742955
 30
0.0
 40
0.0300000000000007
100
AcDbArc
 50
270.0
 51
0.0
  0
ARC
  5
442
330
1F
100
AcDbEntity
  8
0
  6
Continuous
 62
     7
370
    25
100
AcDbCircle
 10
3.4626128152
 20
3.2056742955
 30
0.0
 40
0.0300000000000007
100
AcDbArc
 50
90.0
 51
180.0
  0
ARC
  5
443
330
1F
100
AcDbEntity
  8
0
  6
Continuous
 62
     7
370
    25
100
AcDbCircle
 10
4.0420128152
 20
3.1356742955
 30
0.0
 40
0.0300000000000011
100
AcDbArc
 50
0.0
 51
90.0
  0
ARC
  5
444
330
1F
100
AcDbEntity
  8
0
  6
Continuous
 62
     7
370
    25
100
AcDbCircle
 10
4.0814128152
 20
3.2056742955
 30
0.0
 40
0.0300000000000007
100
AcDbArc
 50
0.0
 51
90.0
  0
ARC
  5
445
330
1F
100
AcDbEntity
  8
0
  6
Continuous
 62
     7
370
    25
100
AcDbCircle
 10
4.1414128152
 20
2.9756742955
 30
0.0
 40
0.0300000000000002
100
AcDbArc
 50
180.0
 51
270.0
  0
ARC
  5
446
330
1F
100
AcDbEntity
  8
0
  6
Continuous
 62
     7
370
    25
100
AcDbCircle
 10
4.1020128152
 20
2.9056742955
 30
0.0
 40
0.0300000000000002
100
AcDbArc
 50
180.0
 51
270.0
  0
ARC
  5
447
330
1F
100
AcDbEntity
  8
0
  6
Continuous
 62
     7
370
    25
100
AcDbCircle
 10
3.9873128152
 20
3.0156742955
 30
0.0
 40
0.0300000000000011
100
AcDbArc
 50
0.0
 51
90.0
  0
ARC
  5
448
330
1F
100
AcDbEntity
  8
0
  6
Continuous
 62
     7
370
    25
100
AcDbCircle
 10
4.0267128152
 20
3.0856742955
 30
0.0
 40
0.0300000000000011
100
AcDbArc
 50
0.0
 51
90.0
  0
ARC
  5
449
330
1F
100
AcDbEntity
  8
0
  6
Continuous
 62
     7
370
    25
100
AcDbCircle
 10
4.0867128152
 20
2.8556742955
 30
0.0
 40
0.0300000000000002
100
AcDbArc
 50
180.0
 51
270.0
  0
ARC
  5
44A
330
1F
100
AcDbEntity
  8
0
  6
Continuous
 62
     7
370
    25
100
AcDbCircle
 10
4.0473128152
 20
2.7856742955
 30
0.0
 40
0.0300000000000011
100
AcDbArc
 50
180.0
 51
270.0
  0
ARC
  5
44B
330
1F
100
AcDbEntity
  8
0
  6
Continuous
 62
     7
370
    25
100
AcDbCircle
 10
3.9326128152
 20
2.8956742955
 30
0.0
 40
0.030000000000002
100
AcDbArc
 50
0.0
 51
90.0
  0
ARC
  5
44C
330
1F
100
AcDbEntity
  8
0
  6
Continuous
 62
     7
370
    25
100
AcDbCircle
 10
3.9720128152
 20
2.9656742955
 30
0.0
 40
0.0300000000000002
100
AcDbArc
 50
0.0
 51
90.0
  0
ARC
  5
44D
330
1F
100
AcDbEntity
  8
0
  6
Continuous
 62
     7
370
    25
100
AcDbCircle
 10
4.0320128152
 20
2.7356742955
 30
0.0
 40
0.0300000000000011
100
AcDbArc
 50
180.0
 51
270.0
  0
ARC
  5
44E
330
1F
100
AcDbEntity
  8
0
  6
Continuous
 62
     7
370
    25
100
AcDbCircle
 10
3.9926128152
 20
2.6656742955
 30
0.0
 40
0.0300000000000007
100
AcDbArc
 50
180.0
 51
270.0
  0
ARC
  5
44F
330
1F
100
AcDbEntity
  8
0
  6
Continuous
 62
     7
370
    25
100
AcDbCircle
 10
4.6714128152
 20
2.8956742955
 30
0.0
 40
0.0300000000000025
100
AcDbArc
 50
90.0
 51
180.0
  0
ARC
  5
450
330
1F
100
AcDbEntity
  8
0
  6
Continuous
 62
     7
370
    25
100
AcDbCircle
 10
4.6114128152
 20
2.6656742955
 30
0.0
 40
0.0300000000000011
100
AcDbArc
 50
270.0
 51
360.0
  0
ARC
  5
451
330
1F
100
AcDbEntity
  8
0
  6
Continuous
 62
     7
370
    25
100
AcDbCircle
 10
4.5720128152
 20
2.7356742955
 30
0.0
 40
0.0300000000000007
100
AcDbArc
 50
270.0
 51
0.0
  0
ARC
  5
452
330
1F
100
AcDbEntity
  8
0
  6
Continuous
 62
     7
370
    25
100
AcDbCircle
 10
4.6320128152
 20
2.9656742955
 30
0.0
 40
0.0300000000000007
100
AcDbArc
 50
90.0
 51
180.0
  0
ARC
  5
453
330
1F
100
AcDbEntity
  8
0
  6
Continuous
 62
     7
370
    25
100
AcDbCircle
 10
4.6167128152
 20
3.0156742955
 30
0.0
 40
0.0300000000000007
100
AcDbArc
 50
90.0
 51
180.0
  0
ARC
  5
454
330
1F
100
AcDbEntity
  8
0
  6
Continuous
 62
     7
370
    25
100
AcDbCircle
 10
4.5567128152
 20
2.7856742955
 30
0.0
 40
0.0300000000000011
100
AcDbArc
 50
270.0
 51
360.0
  0
ARC
  5
455
330
1F
100
AcDbEntity
  8
0
  6
Continuous
 62
     7
370
    25
100
AcDbCircle
 10
4.5173128152
 20
2.8556742955
 30
0.0
 40
0.0300000000000011
100
AcDbArc
 50
270.0
 51
0.0
  0
ARC
  5
456
330
1F
100
AcDbEntity
  8
0
  6
Continuous
 62
     7
370
    25
100
AcDbCircle
 10
4.5773128152
 20
3.0856742955
 30
0.0
 40
0.0300000000000002
100
AcDbArc
 50
90.0
 51
180.0
  0
ARC
  5
457
330
1F
100
AcDbEntity
  8
0
  6
Continuous
 62
     7
370
    25
100
AcDbCircle
 10
4.5620128152
 20
3.1356742955
 30
0.0
 40
0.0300000000000007
100
AcDbArc
 50
90.0
 51
180.0
  0
ARC
  5
458
330
1F
100
AcDbEntity
  8
0
  6
Continuous
 62
     7
370
    25
100
AcDbCircle
 10
4.5020128152
 20
2.9056742955
 30
0.0
 40
0.0300000000000002
100
AcDbArc
 50
270.0
 51
0.0
  0
ARC
  5
459
330
1F
100
AcDbEntity
  8
0
  6
Continuous
 62
     7
370
    25
100
AcDbCircle
 10
4.4626128152
 20
2.9756742955
 30
0.0
 40
0.0300000000000011
100
AcDbArc
 50
270.0
 51
0.0
  0
ARC
  5
45A
330
1F
100
AcDbEntity
  8
0
  6
Continuous
 62
     7
370
    25
100
AcDbCircle
 10
4.5226128152
 20
3.2056742955
 30
0.0
 40
0.0300000000000011
100
AcDbArc
 50
90.0
 51
180.0
  0
ARC
  5
45B
330
1F
100
AcDbEntity
  8
0
  6
Continuous
 62
     7
370
    25
100
AcDbCircle
 10
5.1020128152
 20
3.1356742955
 30
0.0
 40
0.0299999999999994
100
AcDbArc
 50
0.0
 51
90.0
  0
ARC
  5
45C
330
1F
100
AcDbEntity
  8
0
  6
Continuous
 62
     7
370
    25
100
AcDbCircle
 10
5.1414128152
 20
3.2056742955
 30
0.0
 40
0.0299999999999989
100
AcDbArc
 50
360.0
 51
90.0
  0
ARC
  5
45D
330
1F
100
AcDbEntity
  8
0
  6
Continuous
 62
     7
370
    25
100
AcDbCircle
 10
5.2014128152
 20
2.9756742955
 30
0.0
 40
0.030000000000002
100
AcDbArc
 50
180.0
 51
270.0
  0
ARC
  5
45E
330
1F
100
AcDbEntity
  8
0
  6
Continuous
 62
     7
370
    25
100
AcDbCircle
 10
5.1620128152
 20
2.9056742955
 30
0.0
 40
0.0299999999999998
100
AcDbArc
 50
180.0
 51
270.0
  0
ARC
  5
45F
330
1F
100
AcDbEntity
  8
0
  6
Continuous
 62
     7
370
    25
100
AcDbCircle
 10
5.0473128152
 20
3.0156742955
 30
0.0
 40
0.0300000000000011
100
AcDbArc
 50
0.0
 51
90.0
  0
ARC
  5
460
330
1F
100
AcDbEntity
  8
0
  6
Continuous
 62
     7
370
    25
100
AcDbCircle
 10
5.0867128152
 20
3.0856742955
 30
0.0
 40
0.0300000000000002
100
AcDbArc
 50
0.0
 51
90.0
  0
ARC
  5
461
330
1F
100
AcDbEntity
  8
0
  6
Continuous
 62
     7
370
    25
100
AcDbCircle
 10
5.1467128152
 20
2.8556742955
 30
0.0
 40
0.0300000000000011
100
AcDbArc
 50
180.0
 51
270.0
  0
ARC
  5
462
330
1F
100
AcDbEntity
  8
0
  6
Continuous
 62
     7
370
    25
100
AcDbCircle
 10
5.1073128152
 20
2.7856742955
 30
0.0
 40
0.0299999999999985
100
AcDbArc
 50
180.0
 51
270.0
  0
ARC
  5
463
330
1F
100
AcDbEntity
  8
0
  6
Continuous
 62
     7
370
    25
100
AcDbCircle
 10
4.9926128152
 20
2.8956742955
 30
0.0
 40
0.0299999999999998
100
AcDbArc
 50
0.0
 51
90.0
  0
ARC
  5
464
330
1F
100
AcDbEntity
  8
0
  6
Continuous
 62
     7
370
    25
100
AcDbCircle
 10
5.0320128152
 20
2.9656742955
 30
0.0
 40
0.0300000000000002
100
AcDbArc
 50
0.0
 51
90.0
  0
ARC
  5
465
330
1F
100
AcDbEntity
  8
0
  6
Continuous
 62
     7
370
    25
100
AcDbCircle
 10
5.0920128152
 20
2.7356742955
 30
0.0
 40
0.0300000000000011
100
AcDbArc
 50
180.0
 51
270.0
  0
ARC
  5
466
330
1F
100
AcDbEntity
  8
0
  6
Continuous
 62
     7
370
    25
100
AcDbCircle
 10
5.0526128152
 20
2.6656742955
 30
0.0
 40
0.030000000000002
100
AcDbArc
 50
180.0
 51
270.0
  0
ARC
  5
467
330
1F
100
AcDbEntity
  8
0
  6
Continuous
 62
     7
370
    25
100
AcDbCircle
 10
5.7314128152
 20
2.8956742955
 30
0.0
 40
0.0299999999999994
100
AcDbArc
 50
90.0
 51
180.0
  0
ARC
  5
468
330
1F
100
AcDbEntity
  8
0
  6
Continuous
 62
     7
370
    25
100
AcDbCircle
 10
5.6714128152
 20
2.6656742955
 30
0.0
 40
0.030000000000002
100
AcDbArc
 50
270.0
 51
360.0
  0
ARC
  5
469
330
1F
100
AcDbEntity
  8
0
  6
Continuous
 62
     7
370
    25
100
AcDbCircle
 10
5.6320128152
 20
2.7356742955
 30
0.0
 40
0.0299999999999985
100
AcDbArc
 50
270.0
 51
0.0
  0
ARC
  5
46A
330
1F
100
AcDbEntity
  8
0
  6
Continuous
 62
     7
370
    25
100
AcDbCircle
 10
5.6920128152
 20
2.9656742955
 30
0.0
 40
0.030000000000002
100
AcDbArc
 50
90.0
 51
180.0
  0
ARC
  5
46B
330
1F
100
AcDbEntity
  8
0
  6
Continuous
 62
     7
370
    25
100
AcDbCircle
 10
5.6767128152
 20
3.0156742955
 30
0.0
 40
0.0299999999999985
100
AcDbArc
 50
90.0
 51
180.0
  0
ARC
  5
46C
330
1F
100
AcDbEntity
  8
0
  6
Continuous
 62
     7
370
    25
100
AcDbCircle
 10
5.6167128152
 20
2.7856742955
 30
0.0
 40
0.0300000000000025
100
AcDbArc
 50
270.0
 51
360.0
  0
ARC
  5
46D
330
1F
100
AcDbEntity
  8
0
  6
Continuous
 62
     7
370
    25
100
AcDbCircle
 10
5.5773128152
 20
2.8556742955
 30
0.0
 40
0.0300000000000002
100
AcDbArc
 50
270.0
 51
0.0
  0
ARC
  5
46E
330
1F
100
AcDbEntity
  8
0
  6
Continuous
 62
     7
370
    25
100
AcDbCircle
 10
5.6373128152
 20
3.0856742955
 30
0.0
 40
0.0300000000000011
100
AcDbArc
 50
90.0
 51
180.0
  0
ARC
  5
46F
330
1F
100
AcDbEntity
  8
0
  6
Continuous
 62
     7
370
    25
100
AcDbCircle
 10
5.6220128152
 20
3.1356742955
 30
0.0
 40
0.0299999999999994
100
AcDbArc
 50
90.0
 51
180.0
  0
ARC
  5
470
330
1F
100
AcDbEntity
  8
0
  6
Continuous
 62
     7
370
    25
100
AcDbCircle
 10
5.5620128152
 20
2.9056742955
 30
0.0
 40
0.0300000000000002
100
AcDbArc
 50
270.0
 51
0.0
  0
ARC
  5
471
330
1F
100
AcDbEntity
  8
0
  6
Continuous
 62
     7
370
    25
100
AcDbCircle
 10
5.5226128152
 20
2.9756742955
 30
0.0
 40
0.0299999999999989
100
AcDbArc
 50
270.0
 51
0.0
  0
ARC
  5
472
330
1F
100
AcDbEntity
  8
0
  6
Continuous
 62
     7
370
    25
100
AcDbCircle
 10
5.5826128152
 20
3.2056742955
 30
0.0
 40
0.0300000000000029
100
AcDbArc
 50
90.0
 51
180.0
  0
ARC
  5
473
330
1F
100
AcDbEntity
  8
0
  6
Continuous
 62
     7
370
    25
100
AcDbCircle
 10
6.2614128152
 20
2.9756742955
 30
0.0
 40
0.0300000000000016
100
AcDbArc
 50
180.0
 51
270.0
  0
ARC
  5
474
330
1F
100
AcDbEntity
  8
0
  6
Continuous
 62
     7
370
    25
100
AcDbCircle
 10
6.2220128152
 20
2.9056742955
 30
0.0
 40
0.029999999999998
100
AcDbArc
 50
180.0
 51
270.0
  0
ARC
  5
475
330
1F
100
AcDbEntity
  8
0
  6
Continuous
 62
     7
370
    25
100
AcDbCircle
 10
6.1620128152
 20
3.1356742955
 30
0.0
 40
0.030000000000002
100
AcDbArc
 50
0.0
 51
90.0
  0
ARC
  5
476
330
1F
100
AcDbEntity
  8
0
  6
Continuous
 62
     7
370
    25
100
AcDbCircle
 10
6.2014128152
 20
3.2056742955
 30
0.0
 40
0.0300000000000002
100
AcDbArc
 50
360.0
 51
90.0
  0
ARC
  5
477
330
1F
100
AcDbEntity
  8
0
  6
Continuous
 62
     7
370
    25
100
AcDbCircle
 10
6.2067128152
 20
2.8556742955
 30
0.0
 40
0.0300000000000011
100
AcDbArc
 50
180.0
 51
270.0
  0
ARC
  5
478
330
1F
100
AcDbEntity
  8
0
  6
Continuous
 62
     7
370
    25
100
AcDbCircle
 10
6.1673128152
 20
2.7856742955
 30
0.0
 40
0.0300000000000002
100
AcDbArc
 50
180.0
 51
270.0
  0
ARC
  5
479
330
1F
100
AcDbEntity
  8
0
  6
Continuous
 62
     7
370
    25
100
AcDbCircle
 10
6.1073128152
 20
3.0156742955
 30
0.0
 40
0.0300000000000011
100
AcDbArc
 50
0.0
 51
90.0
  0
ARC
  5
47A
330
1F
100
AcDbEntity
  8
0
  6
Continuous
 62
     7
370
    25
100
AcDbCircle
 10
6.1467128152
 20
3.0856742955
 30
0.0
 40
0.0299999999999985
100
AcDbArc
 50
360.0
 51
90.0
  0
ARC
  5
47B
330
1F
100
AcDbEntity
  8
0
  6
Continuous
 62
     7
370
    25
100
AcDbCircle
 10
6.1520128152
 20
2.7356742955
 30
0.0
 40
0.0300000000000016
100
AcDbArc
 50
180.0
 51
270.0
  0
ARC
  5
47C
330
1F
100
AcDbEntity
  8
0
  6
Continuous
 62
     7
370
    25
100
AcDbCircle
 10
6.1126128152
 20
2.6656742955
 30
0.0
 40
0.0299999999999994
100
AcDbArc
 50
180.0
 51
270.0
  0
ARC
  5
47D
330
1F
100
AcDbEntity
  8
0
  6
Continuous
 62
     7
370
    25
100
AcDbCircle
 10
6.0526128152
 20
2.8956742955
 30
0.0
 40
0.0300000000000029
100
AcDbArc
 50
0.0
 51
90.0
  0
ARC
  5
47E
330
1F
100
AcDbEntity
  8
0
  6
Continuous
 62
     7
370
    25
100
AcDbCircle
 10
6.0920128152
 20
2.9656742955
 30
0.0
 40
0.0299999999999994
100
AcDbArc
 50
360.0
 51
90.0
  0
ARC
  5
47F
330
1F
100
AcDbEntity
  8
0
  6
Continuous
 62
     7
370
    25
100
AcDbCircle
 10
6.5914128152
 20
2.9756742955
 30
0.0
 40
0.0300000000000002
100
AcDbArc
 50
180.0
 51
270.0
  0
ARC
  5
480
330
1F
100
AcDbEntity
  8
0
  6
Continuous
 62
     7
370
    25
100
AcDbCircle
 10
6.5520128152
 20
2.9056742955
 30
0.0
 40
0.0300000000000002
100
AcDbArc
 50
180.0
 51
270.0
  0
ARC
  5
481
330
1F
100
AcDbEntity
  8
0
  6
Continuous
 62
     7
370
    25
100
AcDbCircle
 10
6.5014128152
 20
2.8556742955
 30
0.0
 40
0.030000000000002
100
AcDbArc
 50
180.0
 51
270.0
  0
ARC
  5
482
330
1F
100
AcDbEntity
  8
0
  6
Continuous
 62
     7
370
    25
100
AcDbCircle
 10
6.4620128152
 20
2.7856742955
 30
0.0
 40
0.0300000000000002
100
AcDbArc
 50
180.0
 51
270.0
  0
ARC
  5
483
330
1F
100
AcDbEntity
  8
0
  6
Continuous
 62
     7
370
    25
100
AcDbCircle
 10
-0.7379871848
 20
3.1356742955
 30
0.0
 40
0.0299999999999998
100
AcDbArc
 50
90.0
 51
180.0
  0
ARC
  5
484
330
1F
100
AcDbEntity
  8
0
  6
Continuous
 62
     7
370
    25
100
AcDbCircle
 10
-0.7979871848
 20
2.9056742955
 30
0.0
 40
0.0300000000000011
100
AcDbArc
 50
270.0
 51
0.0
  0
ARC
  5
485
330
1F
100
AcDbEntity
  8
0
  6
Continuous
 62
     7
370
    25
100
AcDbCircle
 10
-0.8373871848
 20
2.9756742955
 30
0.0
 40
0.0300000000000004
100
AcDbArc
 50
270.0
 51
0.0
  0
ARC
  5
486
330
1F
100
AcDbEntity
  8
0
  6
Continuous
 62
     7
370
    25
100
AcDbCircle
 10
-0.7773871848
 20
3.2056742955
 30
0.0
 40
0.0300000000000007
100
AcDbArc
 50
90.0
 51
180.0
  0
ARC
  5
487
330
1F
100
AcDbEntity
  8
0
  6
Continuous
 62
     7
370
    25
100
AcDbCircle
 10
-0.6832871848
 20
3.0156742955
 30
0.0
 40
0.0300000000000016
100
AcDbArc
 50
90.0
 51
180.0
  0
ARC
  5
488
330
1F
100
AcDbEntity
  8
0
  6
Continuous
 62
     7
370
    25
100
AcDbCircle
 10
-0.7432871848
 20
2.7856742955
 30
0.0
 40
0.0299999999999998
100
AcDbArc
 50
270.0
 51
0.0
  0
ARC
  5
489
330
1F
100
AcDbEntity
  8
0
  6
Continuous
 62
     7
370
    25
100
AcDbCircle
 10
-0.7826871848
 20
2.8556742955
 30
0.0
 40
0.0299999999999998
100
AcDbArc
 50
270.0
 51
0.0
  0
ARC
  5
48A
330
1F
100
AcDbEntity
  8
0
  6
Continuous
 62
     7
370
    25
100
AcDbCircle
 10
-0.7226871848
 20
3.0856742955
 30
0.0
 40
0.0299999999999998
100
AcDbArc
 50
90.0
 51
180.0
  0
ARC
  5
48B
330
1F
100
AcDbEntity
  8
0
  6
Continuous
 62
     7
370
    25
100
AcDbCircle
 10
-0.6285871848
 20
2.8956742955
 30
0.0
 40
0.0300000000000025
100
AcDbArc
 50
90.0
 51
180.0
  0
ARC
  5
48C
330
1F
100
AcDbEntity
  8
0
  6
Continuous
 62
     7
370
    25
100
AcDbCircle
 10
-0.6885871848
 20
2.6656742955
 30
0.0
 40
0.0300000000000004
100
AcDbArc
 50
270.0
 51
0.0
  0
ARC
  5
48D
330
1F
100
AcDbEntity
  8
0
  6
Continuous
 62
     7
370
    25
100
AcDbCircle
 10
-0.7279871848
 20
2.7356742955
 30
0.0
 40
0.0300000000000012
100
AcDbArc
 50
270.0
 51
0.0
  0
ARC
  5
48E
330
1F
100
AcDbEntity
  8
0
  6
Continuous
 62
     7
370
    25
100
AcDbCircle
 10
-0.6679871848
 20
2.9656742955
 30
0.0
 40
0.0299999999999994
100
AcDbArc
 50
90.0
 51
180.0
  0
ARC
  5
48F
330
1F
100
AcDbEntity
  8
0
  6
Continuous
 62
     7
370
    25
100
AcDbCircle
 10
-0.2079871848
 20
2.7356742955
 30
0.0
 40
0.0299999999999994
100
AcDbArc
 50
180.0
 51
270.0
  0
ARC
  5
490
330
1F
100
AcDbEntity
  8
0
  6
Continuous
 62
     7
370
    25
100
AcDbCircle
 10
-0.2473871848
 20
2.6656742955
 30
0.0
 40
0.0300000000000002
100
AcDbArc
 50
180.0
 51
270.0
  0
ARC
  5
491
330
1F
100
AcDbEntity
  8
0
  6
Continuous
 62
     7
370
    25
100
AcDbCircle
 10
-0.3073871848
 20
2.8956742955
 30
0.0
 40
0.0300000000000003
100
AcDbArc
 50
0.0
 51
90.0
  0
ARC
  5
492
330
1F
100
AcDbEntity
  8
0
  6
Continuous
 62
     7
370
    25
100
AcDbCircle
 10
-0.2679871848
 20
2.9656742955
 30
0.0
 40
0.0300000000000013
100
AcDbArc
 50
0.0
 51
90.0
  0
ARC
  5
493
330
1F
100
AcDbEntity
  8
0
  6
Continuous
 62
     7
370
    25
100
AcDbCircle
 10
-0.1532871848
 20
2.8556742955
 30
0.0
 40
0.0300000000000007
100
AcDbArc
 50
180.0
 51
270.0
  0
ARC
  5
494
330
1F
100
AcDbEntity
  8
0
  6
Continuous
 62
     7
370
    25
100
AcDbCircle
 10
-0.1926871848
 20
2.7856742955
 30
0.0
 40
0.0299999999999998
100
AcDbArc
 50
180.0
 51
270.0
  0
ARC
  5
495
330
1F
100
AcDbEntity
  8
0
  6
Continuous
 62
     7
370
    25
100
AcDbCircle
 10
-0.2526871848
 20
3.0156742955
 30
0.0
 40
0.0300000000000007
100
AcDbArc
 50
0.0
 51
90.0
  0
ARC
  5
496
330
1F
100
AcDbEntity
  8
0
  6
Continuous
 62
     7
370
    25
100
AcDbCircle
 10
-0.2132871848
 20
3.0856742955
 30
0.0
 40
0.0300000000000003
100
AcDbArc
 50
0.0
 51
90.0
  0
ARC
  5
497
330
1F
100
AcDbEntity
  8
0
  6
Continuous
 62
     7
370
    25
100
AcDbCircle
 10
-0.0985871848
 20
2.9756742955
 30
0.0
 40
0.0300000000000003
100
AcDbArc
 50
180.0
 51
270.0
  0
ARC
  5
498
330
1F
100
AcDbEntity
  8
0
  6
Continuous
 62
     7
370
    25
100
AcDbCircle
 10
-0.1379871848
 20
2.9056742955
 30
0.0
 40
0.030000000000002
100
AcDbArc
 50
180.0
 51
270.0
  0
ARC
  5
499
330
1F
100
AcDbEntity
  8
0
  6
Continuous
 62
     7
370
    25
100
AcDbCircle
 10
-0.1979871848
 20
3.1356742955
 30
0.0
 40
0.0300000000000003
100
AcDbArc
 50
0.0
 51
90.0
  0
ARC
  5
49A
330
1F
100
AcDbEntity
  8
0
  6
Continuous
 62
     7
370
    25
100
AcDbCircle
 10
-0.1585871848
 20
3.2056742955
 30
0.0
 40
0.0300000000000007
100
AcDbArc
 50
0.0
 51
90.0
  0
ARC
  5
49B
330
1F
100
AcDbEntity
  8
0
  6
Continuous
 62
     7
370
    25
100
AcDbCircle
 10
-0.9873871848
 20
2.7356742955
 30
0.0
 40
0.0300000000000011
100
AcDbArc
 50
270.0
 51
0.0
  0
ARC
  5
49C
330
1F
100
AcDbEntity
  8
0
  6
Continuous
 62
     7
370
    25
100
AcDbCircle
 10
-0.9479871848
 20
2.6656742955
 30
0.0
 40
0.0300000000000009
100
AcDbArc
 50
270.0
 51
0.0
  0
ARC
  5
49D
330
1F
100
AcDbEntity
  8
0
  6
Continuous
 62
     7
370
    25
100
AcDbCircle
 10
-1.1673871848
 20
2.9756742955
 30
0.0
 40
0.0299999999999989
100
AcDbArc
 50
270.0
 51
0.0
  0
ARC
  5
49E
330
1F
100
AcDbEntity
  8
0
  6
Continuous
 62
     7
370
    25
100
AcDbCircle
 10
-1.1279871848
 20
2.9056742955
 30
0.0
 40
0.0300000000000011
100
AcDbArc
 50
270.0
 51
360.0
  0
ARC
  5
49F
330
1F
100
AcDbEntity
  8
0
  6
Continuous
 62
     7
370
    25
100
AcDbCircle
 10
-1.0379871848
 20
2.7856742955
 30
0.0
 40
0.03
100
AcDbArc
 50
270.0
 51
0.0
  0
ARC
  5
4A0
330
1F
100
AcDbEntity
  8
0
  6
Continuous
 62
     7
370
    25
100
AcDbCircle
 10
-1.0773871848
 20
2.8556742955
 30
0.0
 40
0.0300000000000002
100
AcDbArc
 50
270.0
 51
0.0
  0
MTEXT
  5
4A2
330
1F
100
AcDbEntity
  8
0
  6
Continuous
 62
     7
100
AcDbMText
 10
-1.2829871848
 20
2.5475338863
 30
0.0
 40
0.1903
 41
0.0
 71
     1
 72
     1
  1
SOLIDWORKS Educational Product.
  7
SLDTEXTSTYLE0
 73
     1
 44
1.0
  0
MTEXT
  5
4A3
330
1F
100
AcDbEntity
  8
0
  6
Continuous
 62
     7
100
AcDbMText
 10
-1.2829871848
 20
2.2620838863
 30
0.0
 40
0.1903
 41
0.0
 71
     1
 72
     1
  1
For Instructional Use Only.
  7
SLDTEXTSTYLE0
 73
     1
 44
1.0
  0
ENDSEC
  0
SECTION
  2
OBJECTS
  0
DICTIONARY
  5
C
330
0
100
AcDbDictionary
281
     1
  3
ACAD_GROUP
350
D
  3
ACAD_LAYOUT
350
1A
  3
ACAD_MLINESTYLE
350
17
  3
ACAD_PLOTSETTINGS
350
19
  3
ACAD_PLOTSTYLENAME
350
E
  3
ACAD_SCALELIST
350
47
  0
DICTIONARY
  5
D
102
{ACAD_REACTORS
330
C
102
}
330
C
100
AcDbDictionary
281
     1
  0
DICTIONARY
  5
1A
102
{ACAD_REACTORS
330
C
102
}
330
C
100
AcDbDictionary
281
     1
  3
Layout1
350
1E
  3
Layout2
350
26
  3
Model
350
22
  0
DICTIONARY
  5
17
102
{ACAD_REACTORS
330
C
102
}
330
C
100
AcDbDictionary
281
     1
  3
Standard
350
18
  0
DICTIONARY
  5
19
102
{ACAD_REACTORS
330
C
102
}
330
C
100
AcDbDictionary
281
     1
  0
ACDBDICTIONARYWDFLT
  5
E
102
{ACAD_REACTORS
330
C
102
}
330
C
100
AcDbDictionary
281
     1
  3
Normal
350
F
100
AcDbDictionaryWithDefault
340
F
  0
DICTIONARY
  5
47
102
{ACAD_REACTORS
330
C
102
}
330
C
100
AcDbDictionary
281
     1
  3
A0
350
48
  3
A1
350
49
  3
A2
350
4A
  3
A3
350
4B
  3
A4
350
4C
  3
A5
350
4D
  3
A6
350
4E
  3
A7
350
4F
  3
A8
350
50
  3
A9
350
51
  3
B0
350
52
  3
B1
350
53
  3
B2
350
54
  3
B3
350
55
  3
B4
350
56
  3
B5
350
57
  3
B6
350
58
  3
B7
350
59
  3
B8
350
5A
  3
B9
350
5B
  3
C0
350
5C
  3
C1
350
5D
  3
C2
350
5E
  3
C3
350
5F
  3
C4
350
60
  3
C5
350
61
  3
C6
350
62
  3
C7
350
63
  3
C8
350
64
  3
C9
350
65
  3
D0
350
66
  3
D1
350
67
  3
D2
350
68
  0
LAYOUT
  5
1E
102
{ACAD_REACTORS
330
1A
102
}
330
1A
100
AcDbPlotSettings
  1

  2
none_device
  4

  6

 40
0.0
 41
0.0
 42
0.0
 43
0.0
 44
0.0
 45
0.0
 46
0.0
 47
0.0
 48
0.0
 49
0.0
140
0.0
141
0.0
142
1.0
143
1.0
 70
   688
 72
     0
 73
     0
 74
     5
  7

 75
    16
147
1.0
148
0.0
149
0.0
100
AcDbLayout
  1
Layout1
 70
     1
 71
     1
 10
0.0
 20
0.0
 11
12.0
 21
9.0
 12
0.0
 22
0.0
 32
0.0
 14
1.0000000000E+20
 24
1.0000000000E+20
 34
1.0000000000E+20
 15
-1.0000000000E+20
 25
-1.0000000000E+20
 35
-1.0000000000E+20
146
0.0
 13
0.0
 23
0.0
 33
0.0
 16
1.0
 26
0.0
 36
0.0
 17
0.0
 27
1.0
 37
0.0
 76
     0
330
1B
  0
LAYOUT
  5
26
102
{ACAD_REACTORS
330
1A
102
}
330
1A
100
AcDbPlotSettings
  1

  2
none_device
  4

  6

 40
0.0
 41
0.0
 42
0.0
 43
0.0
 44
0.0
 45
0.0
 46
0.0
 47
0.0
 48
0.0
 49
0.0
140
0.0
141
0.0
142
1.0
143
1.0
 70
   688
 72
     0
 73
     0
 74
     5
  7

 75
    16
147
1.0
148
0.0
149
0.0
100
AcDbLayout
  1
Layout2
 70
     1
 71
     2
 10
0.0
 20
0.0
 11
0.0
 21
0.0
 12
0.0
 22
0.0
 32
0.0
 14
0.0
 24
0.0
 34
0.0
 15
0.0
 25
0.0
 35
0.0
146
0.0
 13
0.0
 23
0.0
 33
0.0
 16
1.0
 26
0.0
 36
0.0
 17
0.0
 27
1.0
 37
0.0
 76
     0
330
23
  0
LAYOUT
  5
22
102
{ACAD_REACTORS
330
1A
102
}
330
1A
100
AcDbPlotSettings
  1

  2
none_device
  4
ANSI_A_(11.00_x_8.50_Inches)
  6

 40
6.35
 41
19.05
 42
6.35000508
 43
19.05000254
 44
279.4
 45
215.9
 46
39.46276132
 47
-12.730179514
 48
0.0
 49
0.0
140
0.0
141
0.0
142
1.3629536921
143
1.0
 70
  1696
 72
     0
 73
     0
 74
     0
  7

 75
     0
147
0.5913241897
148
-39.4088153714
149
0.0
100
AcDbLayout
  1
Model
 70
     1
 71
     0
 10
0.0
 20
0.0
 11
12.0
 21
9.0
 12
0.0
 22
0.0
 32
0.0
 14
-1.2829871848
 24
2.5876742955
 34
0.0
 15
6.7070128152
 25
3.2836742955
 35
0.0
146
0.0
 13
0.0
 23
0.0
 33
0.0
 16
1.0
 26
0.0
 36
0.0
 17
0.0
 27
1.0
 37
0.0
 76
     0
330
1F
331
29
  0
MLINESTYLE
  5
18
102
{ACAD_REACTORS
330
17
102
}
330
17
100
AcDbMlineStyle
  2
Standard
 70
     0
  3

 62
   256
 51
90.0
 52
90.0
 71
     2
 49
0.5
 62
   256
  6
BYLAYER
 49
-0.5
 62
   256
  6
BYLAYER
  0
ACDBPLACEHOLDER
  5
F
102
{ACAD_REACTORS
330
E
102
}
330
E
  0
SCALE
  5
48
102
{ACAD_REACTORS
330
47
102
}
330
47
100
AcDbScale
 70
     0
300
1:1
140
1.0
141
1.0
290
     1
  0
SCALE
  5
49
102
{ACAD_REACTORS
330
47
102
}
330
47
100
AcDbScale
 70
     0
300
1:2
140
1.0
141
2.0
290
     0
  0
SCALE
  5
4A
102
{ACAD_REACTORS
330
47
102
}
330
47
100
AcDbScale
 70
     0
300
1:4
140
1.0
141
4.0
290
     0
  0
SCALE
  5
4B
102
{ACAD_REACTORS
330
47
102
}
330
47
100
AcDbScale
 70
     0
300
1:5
140
1.0
141
5.0
290
     0
  0
SCALE
  5
4C
102
{ACAD_REACTORS
330
47
102
}
330
47
100
AcDbScale
 70
     0
300
1:8
140
1.0
141
8.0
290
     0
  0
SCALE
  5
4D
102
{ACAD_REACTORS
330
47
102
}
330
47
100
AcDbScale
 70
     0
300
1:10
140
1.0
141
10.0
290
     0
  0
SCALE
  5
4E
102
{ACAD_REACTORS
330
47
102
}
330
47
100
AcDbScale
 70
     0
300
1:16
140
1.0
141
16.0
290
     0
  0
SCALE
  5
4F
102
{ACAD_REACTORS
330
47
102
}
330
47
100
AcDbScale
 70
     0
300
1:20
140
1.0
141
20.0
290
     0
  0
SCALE
  5
50
102
{ACAD_REACTORS
330
47
102
}
330
47
100
AcDbScale
 70
     0
300
1:30
140
1.0
141
30.0
290
     0
  0
SCALE
  5
51
102
{ACAD_REACTORS
330
47
102
}
330
47
100
AcDbScale
 70
     0
300
1:40
140
1.0
141
40.0
290
     0
  0
SCALE
  5
52
102
{ACAD_REACTORS
330
47
102
}
330
47
100
AcDbScale
 70
     0
300
1:50
140
1.0
141
50.0
290
     0
  0
SCALE
  5
53
102
{ACAD_REACTORS
330
47
102
}
330
47
100
AcDbScale
 70
     0
300
1:100
140
1.0
141
100.0
290
     0
  0
SCALE
  5
54
102
{ACAD_REACTORS
330
47
102
}
330
47
100
AcDbScale
 70
     0
300
2:1
140
2.0
141
1.0
290
     0
  0
SCALE
  5
55
102
{ACAD_REACTORS
330
47
102
}
330
47
100
AcDbScale
 70
     0
300
4:1
140
4.0
141
1.0
290
     0
  0
SCALE
  5
56
102
{ACAD_REACTORS
330
47
102
}
330
47
100
AcDbScale
 70
     0
300
8:1
140
8.0
141
1.0
290
     0
  0
SCALE
  5
57
102
{ACAD_REACTORS
330
47
102
}
330
47
100
AcDbScale
 70
     0
300
10:1
140
10.0
141
1.0
290
     0
  0
SCALE
  5
58
102
{ACAD_REACTORS
330
47
102
}
330
47
100
AcDbScale
 70
     0
300
100:1
140
100.0
141
1.0
290
     0
  0
SCALE
  5
59
102
{ACAD_REACTORS
330
47
102
}
330
47
100
AcDbScale
 70
     0
300
1/128" = 1'-0"
140
0.0078125
141
12.0
290
     0
  0
SCALE
  5
5A
102
{ACAD_REACTORS
330
47
102
}
330
47
100
AcDbScale
 70
     0
300
1/64" = 1'-0"
140
0.015625
141
12.0
290
     0
  0
SCALE
  5
5B
102
{ACAD_REACTORS
330
47
102
}
330
47
100
AcDbScale
 70
     0
300
1/32" = 1'-0"
140
0.03125
141
12.0
290
     0
  0
SCALE
  5
5C
102
{ACAD_REACTORS
330
47
102
}
330
47
100
AcDbScale
 70
     0
300
1/16" = 1'-0"
140
0.0625
141
12.0
290
     0
  0
SCALE
  5
5D
102
{ACAD_REACTORS
330
47
102
}
330
47
100
AcDbScale
 70
     0
300
3/32" = 1'-0"
140
0.09375
141
12.0
290
     0
  0
SCALE
  5
5E
102
{ACAD_REACTORS
330
47
102
}
330
47
100
AcDbScale
 70
     0
300
1/8" = 1'-0"
140
0.125
141
12.0
290
     0
  0
SCALE
  5
5F
102
{ACAD_REACTORS
330
47
102
}
330
47
100
AcDbScale
 70
     0
300
3/16" = 1'-0"
140
0.1875
141
12.0
290
     0
  0
SCALE
  5
60
102
{ACAD_REACTORS
330
47
102
}
330
47
100
AcDbScale
 70
     0
300
1/4" = 1'-0"
140
0.25
141
12.0
290
     0
  0
SCALE
  5
61
102
{ACAD_REACTORS
330
47
102
}
330
47
100
AcDbScale
 70
     0
300
3/8" = 1'-0"
140
0.375
141
12.0
290
     0
  0
SCALE
  5
62
102
{ACAD_REACTORS
330
47
102
}
330
47
100
AcDbScale
 70
     0
300
1/2" = 1'-0"
140
0.5
141
12.0
290
     0
  0
SCALE
  5
63
102
{ACAD_REACTORS
330
47
102
}
330
47
100
AcDbScale
 70
     0
300
3/4" = 1'-0"
140
0.75
141
12.0
290
     0
  0
SCALE
  5
64
102
{ACAD_REACTORS
330
47
102
}
330
47
100
AcDbScale
 70
     0
300
1" = 1'-0"
140
1.0
141
12.0
290
     0
  0
SCALE
  5
65
102
{ACAD_REACTORS
330
47
102
}
330
47
100
AcDbScale
 70
     0
300
1-1/2" = 1'-0"
140
1.5
141
12.0
290
     0
  0
SCALE
  5
66
102
{ACAD_REACTORS
330
47
102
}
330
47
100
AcDbScale
 70
     0
300
3" = 1'-0"
140
3.0
141
12.0
290
     0
  0
SCALE
  5
67
102
{ACAD_REACTORS
330
47
102
}
330
47
100
AcDbScale
 70
     0
300
6" = 1'-0"
140
6.0
141
12.0
290
     0
  0
SCALE
  5
68
102
{ACAD_REACTORS
330
47
102
}
330
47
100
AcDbScale
 70
     0
300
1'-0" = 1'-0"
140
12.0
141
12.0
290
     0
  0
ENDSEC
  0
EOF
